STARTFONT 2.1
COMMENT
COMMENT Converted from OpenType font "PressStart2P-Regular.ttf" by "otf2bdf 3.0".
COMMENT
FONT -FreeType-Press Start 2P-Medium-R-Normal--7-50-100-100-P-59-ISO10646-1
SIZE 5 100 100
FONTBOUNDINGBOX 12 11 -5 -3
STARTPROPERTIES 19
FOUNDRY "FreeType"
FAMILY_NAME "Press Start 2P"
WEIGHT_NAME "Medium"
SLANT "R"
SETWIDTH_NAME "Normal"
ADD_STYLE_NAME ""
PIXEL_SIZE 7
POINT_SIZE 50
RESOLUTION_X 100
RESOLUTION_Y 100
SPACING "P"
AVERAGE_WIDTH 59
CHARSET_REGISTRY "ISO10646"
CHARSET_ENCODING "1"
FONT_ASCENT 7
FONT_DESCENT 0
COPYRIGHT "Copyright 2012 The Press Start 2P Project Authors (cody@zone38.net), with Reserved Font Name "Press Start 2P""
_OTF_FONTFILE "PressStart2P-Regular.ttf"
_OTF_PSNAME "PressStart2P-Regular"
ENDPROPERTIES
CHARS 656
STARTCHAR 0000
ENCODING 0
SWIDTH 0 0
DWIDTH 0 0
BBX 0 0 0 0
BITMAP
ENDCHAR
STARTCHAR 000D
ENCODING 13
SWIDTH 1008 0
DWIDTH 7 0
BBX 0 0 0 0
BITMAP
ENDCHAR
STARTCHAR 0020
ENCODING 32
SWIDTH 1008 0
DWIDTH 7 0
BBX 0 0 0 0
BITMAP
ENDCHAR
STARTCHAR 0021
ENCODING 33
SWIDTH 1008 0
DWIDTH 7 0
BBX 2 7 2 1
BITMAP
C0
C0
C0
80
80
00
80
ENDCHAR
STARTCHAR 0022
ENCODING 34
SWIDTH 1008 0
DWIDTH 7 0
BBX 4 3 1 5
BITMAP
F0
F0
F0
ENDCHAR
STARTCHAR 0023
ENCODING 35
SWIDTH 1008 0
DWIDTH 7 0
BBX 6 7 0 1
BITMAP
78
FC
78
78
78
FC
78
ENDCHAR
STARTCHAR 0024
ENCODING 36
SWIDTH 1008 0
DWIDTH 7 0
BBX 6 7 0 1
BITMAP
10
78
D0
78
1C
F8
10
ENDCHAR
STARTCHAR 0025
ENCODING 37
SWIDTH 1008 0
DWIDTH 7 0
BBX 6 7 0 1
BITMAP
64
A8
D0
10
2C
54
98
ENDCHAR
STARTCHAR 0026
ENCODING 38
SWIDTH 1008 0
DWIDTH 7 0
BBX 6 7 0 1
BITMAP
60
D0
D0
60
D4
D8
7C
ENDCHAR
STARTCHAR 0027
ENCODING 39
SWIDTH 1008 0
DWIDTH 7 0
BBX 1 3 2 5
BITMAP
80
80
80
ENDCHAR
STARTCHAR 0028
ENCODING 40
SWIDTH 1008 0
DWIDTH 7 0
BBX 3 7 2 1
BITMAP
60
40
80
80
80
40
60
ENDCHAR
STARTCHAR 0029
ENCODING 41
SWIDTH 1008 0
DWIDTH 7 0
BBX 3 7 1 1
BITMAP
C0
40
20
20
20
40
C0
ENDCHAR
STARTCHAR 002A
ENCODING 42
SWIDTH 1008 0
DWIDTH 7 0
BBX 6 5 0 2
BITMAP
78
30
FC
30
78
ENDCHAR
STARTCHAR 002B
ENCODING 43
SWIDTH 1008 0
DWIDTH 7 0
BBX 5 5 1 2
BITMAP
20
20
F8
20
20
ENDCHAR
STARTCHAR 002C
ENCODING 44
SWIDTH 1008 0
DWIDTH 7 0
BBX 2 3 1 0
BITMAP
40
40
C0
ENDCHAR
STARTCHAR 002D
ENCODING 45
SWIDTH 1008 0
DWIDTH 7 0
BBX 5 1 1 4
BITMAP
F8
ENDCHAR
STARTCHAR 002E
ENCODING 46
SWIDTH 1008 0
DWIDTH 7 0
BBX 1 2 2 1
BITMAP
80
80
ENDCHAR
STARTCHAR 002F
ENCODING 47
SWIDTH 1008 0
DWIDTH 7 0
BBX 6 7 0 1
BITMAP
04
08
10
10
20
40
80
ENDCHAR
STARTCHAR 0030
ENCODING 48
SWIDTH 1008 0
DWIDTH 7 0
BBX 6 7 0 1
BITMAP
30
58
CC
CC
CC
68
30
ENDCHAR
STARTCHAR 0031
ENCODING 49
SWIDTH 1008 0
DWIDTH 7 0
BBX 5 7 1 1
BITMAP
20
60
20
20
20
20
F8
ENDCHAR
STARTCHAR 0032
ENCODING 50
SWIDTH 1008 0
DWIDTH 7 0
BBX 6 7 0 1
BITMAP
78
CC
1C
38
70
E0
FC
ENDCHAR
STARTCHAR 0033
ENCODING 51
SWIDTH 1008 0
DWIDTH 7 0
BBX 6 7 0 1
BITMAP
7C
18
10
38
0C
CC
78
ENDCHAR
STARTCHAR 0034
ENCODING 52
SWIDTH 1008 0
DWIDTH 7 0
BBX 6 7 0 1
BITMAP
18
38
78
D8
FC
18
18
ENDCHAR
STARTCHAR 0035
ENCODING 53
SWIDTH 1008 0
DWIDTH 7 0
BBX 6 7 0 1
BITMAP
F8
C0
F8
0C
0C
CC
78
ENDCHAR
STARTCHAR 0036
ENCODING 54
SWIDTH 1008 0
DWIDTH 7 0
BBX 6 7 0 1
BITMAP
38
60
C0
F8
CC
CC
78
ENDCHAR
STARTCHAR 0037
ENCODING 55
SWIDTH 1008 0
DWIDTH 7 0
BBX 6 7 0 1
BITMAP
FC
CC
18
10
20
20
20
ENDCHAR
STARTCHAR 0038
ENCODING 56
SWIDTH 1008 0
DWIDTH 7 0
BBX 6 7 0 1
BITMAP
70
C8
E8
70
9C
8C
78
ENDCHAR
STARTCHAR 0039
ENCODING 57
SWIDTH 1008 0
DWIDTH 7 0
BBX 6 7 0 1
BITMAP
78
CC
CC
7C
0C
18
70
ENDCHAR
STARTCHAR 003A
ENCODING 58
SWIDTH 1008 0
DWIDTH 7 0
BBX 1 5 2 2
BITMAP
80
80
00
80
80
ENDCHAR
STARTCHAR 003B
ENCODING 59
SWIDTH 1008 0
DWIDTH 7 0
BBX 2 6 1 1
BITMAP
40
40
00
40
40
C0
ENDCHAR
STARTCHAR 003C
ENCODING 60
SWIDTH 1008 0
DWIDTH 7 0
BBX 4 7 1 1
BITMAP
30
20
40
C0
40
20
30
ENDCHAR
STARTCHAR 003D
ENCODING 61
SWIDTH 1008 0
DWIDTH 7 0
BBX 6 3 0 3
BITMAP
FC
00
FC
ENDCHAR
STARTCHAR 003E
ENCODING 62
SWIDTH 1008 0
DWIDTH 7 0
BBX 4 7 1 1
BITMAP
C0
40
20
30
20
40
C0
ENDCHAR
STARTCHAR 003F
ENCODING 63
SWIDTH 1008 0
DWIDTH 7 0
BBX 6 7 0 1
BITMAP
78
FC
CC
18
30
00
30
ENDCHAR
STARTCHAR 0040
ENCODING 64
SWIDTH 1008 0
DWIDTH 7 0
BBX 6 7 0 1
BITMAP
78
84
B4
B4
BC
80
78
ENDCHAR
STARTCHAR 0041
ENCODING 65
SWIDTH 1008 0
DWIDTH 7 0
BBX 6 7 0 1
BITMAP
30
78
CC
CC
FC
CC
CC
ENDCHAR
STARTCHAR 0042
ENCODING 66
SWIDTH 1008 0
DWIDTH 7 0
BBX 6 7 0 1
BITMAP
F8
CC
CC
F8
CC
CC
F8
ENDCHAR
STARTCHAR 0043
ENCODING 67
SWIDTH 1008 0
DWIDTH 7 0
BBX 6 7 0 1
BITMAP
38
6C
C0
C0
C0
6C
38
ENDCHAR
STARTCHAR 0044
ENCODING 68
SWIDTH 1008 0
DWIDTH 7 0
BBX 6 7 0 1
BITMAP
F0
D8
CC
CC
CC
D8
F0
ENDCHAR
STARTCHAR 0045
ENCODING 69
SWIDTH 1008 0
DWIDTH 7 0
BBX 6 7 0 1
BITMAP
FC
C0
C0
F8
C0
C0
FC
ENDCHAR
STARTCHAR 0046
ENCODING 70
SWIDTH 1008 0
DWIDTH 7 0
BBX 6 7 0 1
BITMAP
FC
C0
C0
F8
C0
C0
C0
ENDCHAR
STARTCHAR 0047
ENCODING 71
SWIDTH 1008 0
DWIDTH 7 0
BBX 6 7 0 1
BITMAP
3C
60
C0
DC
CC
6C
3C
ENDCHAR
STARTCHAR 0048
ENCODING 72
SWIDTH 1008 0
DWIDTH 7 0
BBX 6 7 0 1
BITMAP
CC
CC
CC
FC
CC
CC
CC
ENDCHAR
STARTCHAR 0049
ENCODING 73
SWIDTH 1008 0
DWIDTH 7 0
BBX 5 7 1 1
BITMAP
F8
20
20
20
20
20
F8
ENDCHAR
STARTCHAR 004A
ENCODING 74
SWIDTH 1008 0
DWIDTH 7 0
BBX 6 7 0 1
BITMAP
0C
0C
0C
0C
0C
CC
78
ENDCHAR
STARTCHAR 004B
ENCODING 75
SWIDTH 1008 0
DWIDTH 7 0
BBX 6 7 0 1
BITMAP
CC
D8
D0
E0
F0
D8
DC
ENDCHAR
STARTCHAR 004C
ENCODING 76
SWIDTH 1008 0
DWIDTH 7 0
BBX 5 7 1 1
BITMAP
C0
C0
C0
C0
C0
C0
F8
ENDCHAR
STARTCHAR 004D
ENCODING 77
SWIDTH 1008 0
DWIDTH 7 0
BBX 6 7 0 1
BITMAP
CC
FC
FC
DC
DC
CC
CC
ENDCHAR
STARTCHAR 004E
ENCODING 78
SWIDTH 1008 0
DWIDTH 7 0
BBX 6 7 0 1
BITMAP
CC
EC
EC
DC
DC
CC
CC
ENDCHAR
STARTCHAR 004F
ENCODING 79
SWIDTH 1008 0
DWIDTH 7 0
BBX 6 7 0 1
BITMAP
78
CC
CC
CC
CC
CC
78
ENDCHAR
STARTCHAR 0050
ENCODING 80
SWIDTH 1008 0
DWIDTH 7 0
BBX 6 7 0 1
BITMAP
F8
CC
CC
CC
F8
C0
C0
ENDCHAR
STARTCHAR 0051
ENCODING 81
SWIDTH 1008 0
DWIDTH 7 0
BBX 6 7 0 1
BITMAP
78
CC
CC
CC
DC
D8
74
ENDCHAR
STARTCHAR 0052
ENCODING 82
SWIDTH 1008 0
DWIDTH 7 0
BBX 6 7 0 1
BITMAP
F8
CC
CC
DC
F0
D8
DC
ENDCHAR
STARTCHAR 0053
ENCODING 83
SWIDTH 1008 0
DWIDTH 7 0
BBX 6 7 0 1
BITMAP
78
CC
C0
78
0C
CC
78
ENDCHAR
STARTCHAR 0054
ENCODING 84
SWIDTH 1008 0
DWIDTH 7 0
BBX 5 7 1 1
BITMAP
F8
20
20
20
20
20
20
ENDCHAR
STARTCHAR 0055
ENCODING 85
SWIDTH 1008 0
DWIDTH 7 0
BBX 6 7 0 1
BITMAP
CC
CC
CC
CC
CC
CC
78
ENDCHAR
STARTCHAR 0056
ENCODING 86
SWIDTH 1008 0
DWIDTH 7 0
BBX 6 7 0 1
BITMAP
CC
CC
CC
FC
78
30
10
ENDCHAR
STARTCHAR 0057
ENCODING 87
SWIDTH 1008 0
DWIDTH 7 0
BBX 6 7 0 1
BITMAP
DC
DC
DC
DC
FC
FC
48
ENDCHAR
STARTCHAR 0058
ENCODING 88
SWIDTH 1008 0
DWIDTH 7 0
BBX 6 7 0 1
BITMAP
CC
CC
78
30
78
CC
CC
ENDCHAR
STARTCHAR 0059
ENCODING 89
SWIDTH 1008 0
DWIDTH 7 0
BBX 5 7 1 1
BITMAP
D8
D8
D8
70
20
20
20
ENDCHAR
STARTCHAR 005A
ENCODING 90
SWIDTH 1008 0
DWIDTH 7 0
BBX 6 7 0 1
BITMAP
FC
1C
18
30
60
E0
FC
ENDCHAR
STARTCHAR 005B
ENCODING 91
SWIDTH 1008 0
DWIDTH 7 0
BBX 3 7 2 1
BITMAP
E0
80
80
80
80
80
E0
ENDCHAR
STARTCHAR 005C
ENCODING 92
SWIDTH 1008 0
DWIDTH 7 0
BBX 6 7 0 1
BITMAP
80
40
20
10
10
08
04
ENDCHAR
STARTCHAR 005D
ENCODING 93
SWIDTH 1008 0
DWIDTH 7 0
BBX 3 7 1 1
BITMAP
E0
20
20
20
20
20
E0
ENDCHAR
STARTCHAR 005E
ENCODING 94
SWIDTH 1008 0
DWIDTH 7 0
BBX 4 2 1 6
BITMAP
60
F0
ENDCHAR
STARTCHAR 005F
ENCODING 95
SWIDTH 1008 0
DWIDTH 7 0
BBX 6 1 0 0
BITMAP
FC
ENDCHAR
STARTCHAR 0060
ENCODING 96
SWIDTH 1008 0
DWIDTH 7 0
BBX 1 2 3 6
BITMAP
80
80
ENDCHAR
STARTCHAR 0061
ENCODING 97
SWIDTH 1008 0
DWIDTH 7 0
BBX 6 5 0 1
BITMAP
78
0C
7C
CC
7C
ENDCHAR
STARTCHAR 0062
ENCODING 98
SWIDTH 1008 0
DWIDTH 7 0
BBX 6 7 0 1
BITMAP
C0
C0
F8
CC
CC
CC
78
ENDCHAR
STARTCHAR 0063
ENCODING 99
SWIDTH 1008 0
DWIDTH 7 0
BBX 6 5 0 1
BITMAP
7C
C0
C0
C0
7C
ENDCHAR
STARTCHAR 0064
ENCODING 100
SWIDTH 1008 0
DWIDTH 7 0
BBX 6 7 0 1
BITMAP
0C
0C
7C
CC
CC
CC
7C
ENDCHAR
STARTCHAR 0065
ENCODING 101
SWIDTH 1008 0
DWIDTH 7 0
BBX 6 5 0 1
BITMAP
78
CC
FC
C0
78
ENDCHAR
STARTCHAR 0066
ENCODING 102
SWIDTH 1008 0
DWIDTH 7 0
BBX 5 7 1 1
BITMAP
38
20
F8
20
20
20
20
ENDCHAR
STARTCHAR 0067
ENCODING 103
SWIDTH 1008 0
DWIDTH 7 0
BBX 6 6 0 0
BITMAP
7C
CC
CC
7C
0C
78
ENDCHAR
STARTCHAR 0068
ENCODING 104
SWIDTH 1008 0
DWIDTH 7 0
BBX 6 7 0 1
BITMAP
C0
C0
F8
CC
CC
CC
CC
ENDCHAR
STARTCHAR 0069
ENCODING 105
SWIDTH 1008 0
DWIDTH 7 0
BBX 5 7 1 1
BITMAP
20
00
60
20
20
20
F8
ENDCHAR
STARTCHAR 006A
ENCODING 106
SWIDTH 1008 0
DWIDTH 7 0
BBX 4 8 1 0
BITMAP
30
00
30
30
30
30
30
E0
ENDCHAR
STARTCHAR 006B
ENCODING 107
SWIDTH 1008 0
DWIDTH 7 0
BBX 6 7 0 1
BITMAP
C0
C0
CC
D8
F0
D8
CC
ENDCHAR
STARTCHAR 006C
ENCODING 108
SWIDTH 1008 0
DWIDTH 7 0
BBX 5 7 1 1
BITMAP
60
20
20
20
20
20
F8
ENDCHAR
STARTCHAR 006D
ENCODING 109
SWIDTH 1008 0
DWIDTH 7 0
BBX 6 5 0 1
BITMAP
F8
AC
AC
AC
AC
ENDCHAR
STARTCHAR 006E
ENCODING 110
SWIDTH 1008 0
DWIDTH 7 0
BBX 6 5 0 1
BITMAP
F8
CC
CC
CC
CC
ENDCHAR
STARTCHAR 006F
ENCODING 111
SWIDTH 1008 0
DWIDTH 7 0
BBX 6 5 0 1
BITMAP
78
CC
CC
CC
78
ENDCHAR
STARTCHAR 0070
ENCODING 112
SWIDTH 1008 0
DWIDTH 7 0
BBX 6 6 0 0
BITMAP
F8
CC
CC
F8
C0
C0
ENDCHAR
STARTCHAR 0071
ENCODING 113
SWIDTH 1008 0
DWIDTH 7 0
BBX 6 6 0 0
BITMAP
7C
CC
CC
7C
0C
0C
ENDCHAR
STARTCHAR 0072
ENCODING 114
SWIDTH 1008 0
DWIDTH 7 0
BBX 5 5 1 1
BITMAP
F8
C0
C0
C0
C0
ENDCHAR
STARTCHAR 0073
ENCODING 115
SWIDTH 1008 0
DWIDTH 7 0
BBX 6 5 0 1
BITMAP
78
C0
78
0C
F8
ENDCHAR
STARTCHAR 0074
ENCODING 116
SWIDTH 1008 0
DWIDTH 7 0
BBX 5 7 1 1
BITMAP
20
20
F8
20
20
20
20
ENDCHAR
STARTCHAR 0075
ENCODING 117
SWIDTH 1008 0
DWIDTH 7 0
BBX 6 5 0 1
BITMAP
CC
CC
CC
CC
7C
ENDCHAR
STARTCHAR 0076
ENCODING 118
SWIDTH 1008 0
DWIDTH 7 0
BBX 5 5 1 1
BITMAP
D8
D8
D8
70
20
ENDCHAR
STARTCHAR 0077
ENCODING 119
SWIDTH 1008 0
DWIDTH 7 0
BBX 6 5 0 1
BITMAP
DC
DC
DC
DC
78
ENDCHAR
STARTCHAR 0078
ENCODING 120
SWIDTH 1008 0
DWIDTH 7 0
BBX 6 5 0 1
BITMAP
CC
78
30
78
CC
ENDCHAR
STARTCHAR 0079
ENCODING 121
SWIDTH 1008 0
DWIDTH 7 0
BBX 6 6 0 0
BITMAP
CC
CC
CC
7C
0C
78
ENDCHAR
STARTCHAR 007A
ENCODING 122
SWIDTH 1008 0
DWIDTH 7 0
BBX 6 5 0 1
BITMAP
FC
18
30
60
FC
ENDCHAR
STARTCHAR 007B
ENCODING 123
SWIDTH 1008 0
DWIDTH 7 0
BBX 3 7 2 1
BITMAP
60
40
40
80
40
40
60
ENDCHAR
STARTCHAR 007C
ENCODING 124
SWIDTH 1008 0
DWIDTH 7 0
BBX 1 7 3 1
BITMAP
80
80
80
80
80
80
80
ENDCHAR
STARTCHAR 007D
ENCODING 125
SWIDTH 1008 0
DWIDTH 7 0
BBX 3 7 1 1
BITMAP
C0
40
40
20
40
40
C0
ENDCHAR
STARTCHAR 007E
ENCODING 126
SWIDTH 1008 0
DWIDTH 7 0
BBX 6 3 0 3
BITMAP
60
B4
18
ENDCHAR
STARTCHAR 007F
ENCODING 127
SWIDTH 1008 0
DWIDTH 7 0
BBX 4 2 1 1
BITMAP
F0
F0
ENDCHAR
STARTCHAR 00A0
ENCODING 160
SWIDTH 1008 0
DWIDTH 7 0
BBX 0 0 0 0
BITMAP
ENDCHAR
STARTCHAR 00A1
ENCODING 161
SWIDTH 1008 0
DWIDTH 7 0
BBX 2 7 2 1
BITMAP
40
00
40
40
C0
C0
C0
ENDCHAR
STARTCHAR 00A2
ENCODING 162
SWIDTH 1008 0
DWIDTH 7 0
BBX 6 7 0 1
BITMAP
10
78
DC
D0
DC
78
10
ENDCHAR
STARTCHAR 00A3
ENCODING 163
SWIDTH 1008 0
DWIDTH 7 0
BBX 6 7 0 1
BITMAP
38
6C
60
F8
60
60
FC
ENDCHAR
STARTCHAR 00A4
ENCODING 164
SWIDTH 1008 0
DWIDTH 7 0
BBX 5 5 1 2
BITMAP
A8
50
50
50
A8
ENDCHAR
STARTCHAR 00A5
ENCODING 165
SWIDTH 1008 0
DWIDTH 7 0
BBX 5 7 1 1
BITMAP
D8
D8
70
F8
20
F8
20
ENDCHAR
STARTCHAR 00A6
ENCODING 166
SWIDTH 1008 0
DWIDTH 7 0
BBX 1 7 3 1
BITMAP
80
80
80
00
80
80
80
ENDCHAR
STARTCHAR 00A7
ENCODING 167
SWIDTH 1008 0
DWIDTH 7 0
BBX 5 7 1 1
BITMAP
70
D8
E0
50
38
D8
70
ENDCHAR
STARTCHAR 00A8
ENCODING 168
SWIDTH 1008 0
DWIDTH 7 0
BBX 4 1 1 7
BITMAP
F0
ENDCHAR
STARTCHAR 00A9
ENCODING 169
SWIDTH 1008 0
DWIDTH 7 0
BBX 7 8 0 0
BITMAP
38
44
92
A2
A2
92
44
38
ENDCHAR
STARTCHAR 00AA
ENCODING 170
SWIDTH 1008 0
DWIDTH 7 0
BBX 4 4 1 4
BITMAP
E0
70
F0
70
ENDCHAR
STARTCHAR 00AB
ENCODING 171
SWIDTH 1008 0
DWIDTH 7 0
BBX 6 5 0 2
BITMAP
2C
78
D0
78
2C
ENDCHAR
STARTCHAR 00AC
ENCODING 172
SWIDTH 1008 0
DWIDTH 7 0
BBX 5 3 1 3
BITMAP
F8
18
18
ENDCHAR
STARTCHAR 00AD
ENCODING 173
SWIDTH 1008 0
DWIDTH 7 0
BBX 5 1 1 4
BITMAP
F8
ENDCHAR
STARTCHAR 00AE
ENCODING 174
SWIDTH 1008 0
DWIDTH 7 0
BBX 7 8 0 0
BITMAP
38
44
B2
AA
B2
AA
44
38
ENDCHAR
STARTCHAR 00AF
ENCODING 175
SWIDTH 1008 0
DWIDTH 7 0
BBX 4 1 1 7
BITMAP
F0
ENDCHAR
STARTCHAR 00B0
ENCODING 176
SWIDTH 1008 0
DWIDTH 7 0
BBX 2 3 2 5
BITMAP
40
C0
40
ENDCHAR
STARTCHAR 00B1
ENCODING 177
SWIDTH 1008 0
DWIDTH 7 0
BBX 5 7 1 1
BITMAP
20
20
F8
20
20
00
F8
ENDCHAR
STARTCHAR 00B2
ENCODING 178
SWIDTH 1008 0
DWIDTH 7 0
BBX 3 4 2 4
BITMAP
C0
60
40
E0
ENDCHAR
STARTCHAR 00B3
ENCODING 179
SWIDTH 1008 0
DWIDTH 7 0
BBX 3 4 2 4
BITMAP
E0
40
60
C0
ENDCHAR
STARTCHAR 00B4
ENCODING 180
SWIDTH 1008 0
DWIDTH 7 0
BBX 1 2 3 6
BITMAP
80
80
ENDCHAR
STARTCHAR 00B5
ENCODING 181
SWIDTH 1008 0
DWIDTH 7 0
BBX 6 6 0 0
BITMAP
D8
D8
D8
D8
EC
C0
ENDCHAR
STARTCHAR 00B6
ENCODING 182
SWIDTH 1008 0
DWIDTH 7 0
BBX 5 7 1 1
BITMAP
78
E8
A8
E8
78
28
28
ENDCHAR
STARTCHAR 00B7
ENCODING 183
SWIDTH 1008 0
DWIDTH 7 0
BBX 1 2 2 3
BITMAP
80
80
ENDCHAR
STARTCHAR 00B8
ENCODING 184
SWIDTH 1008 0
DWIDTH 7 0
BBX 2 2 2 0
BITMAP
40
80
ENDCHAR
STARTCHAR 00B9
ENCODING 185
SWIDTH 1008 0
DWIDTH 7 0
BBX 3 4 2 4
BITMAP
40
C0
40
E0
ENDCHAR
STARTCHAR 00BA
ENCODING 186
SWIDTH 1008 0
DWIDTH 7 0
BBX 4 4 1 4
BITMAP
60
F0
F0
60
ENDCHAR
STARTCHAR 00BB
ENCODING 187
SWIDTH 1008 0
DWIDTH 7 0
BBX 6 5 0 2
BITMAP
D0
78
2C
78
D0
ENDCHAR
STARTCHAR 00BC
ENCODING 188
SWIDTH 1008 0
DWIDTH 7 0
BBX 6 7 0 1
BITMAP
44
C8
50
54
2C
5C
84
ENDCHAR
STARTCHAR 00BD
ENCODING 189
SWIDTH 1008 0
DWIDTH 7 0
BBX 6 7 0 1
BITMAP
44
C8
50
5C
24
48
9C
ENDCHAR
STARTCHAR 00BE
ENCODING 190
SWIDTH 1008 0
DWIDTH 7 0
BBX 6 7 0 1
BITMAP
E4
48
30
D4
2C
5C
84
ENDCHAR
STARTCHAR 00BF
ENCODING 191
SWIDTH 1008 0
DWIDTH 7 0
BBX 6 7 0 1
BITMAP
30
00
30
60
CC
FC
78
ENDCHAR
STARTCHAR 00C0
ENCODING 192
SWIDTH 1008 0
DWIDTH 7 0
BBX 6 7 0 1
BITMAP
20
10
30
78
CC
FC
CC
ENDCHAR
STARTCHAR 00C1
ENCODING 193
SWIDTH 1008 0
DWIDTH 7 0
BBX 6 7 0 1
BITMAP
10
10
30
78
CC
FC
CC
ENDCHAR
STARTCHAR 00C2
ENCODING 194
SWIDTH 1008 0
DWIDTH 7 0
BBX 6 7 0 1
BITMAP
30
78
30
78
CC
FC
CC
ENDCHAR
STARTCHAR 00C3
ENCODING 195
SWIDTH 1008 0
DWIDTH 7 0
BBX 6 7 0 1
BITMAP
28
50
30
78
CC
FC
CC
ENDCHAR
STARTCHAR 00C4
ENCODING 196
SWIDTH 1008 0
DWIDTH 7 0
BBX 6 7 0 1
BITMAP
78
00
30
78
CC
FC
CC
ENDCHAR
STARTCHAR 00C5
ENCODING 197
SWIDTH 1008 0
DWIDTH 7 0
BBX 6 7 0 1
BITMAP
10
30
30
78
CC
FC
CC
ENDCHAR
STARTCHAR 00C6
ENCODING 198
SWIDTH 1008 0
DWIDTH 7 0
BBX 6 7 0 1
BITMAP
3C
70
D0
DC
F0
D0
DC
ENDCHAR
STARTCHAR 00C7
ENCODING 199
SWIDTH 1008 0
DWIDTH 7 0
BBX 6 8 0 0
BITMAP
38
6C
C0
C0
6C
38
10
20
ENDCHAR
STARTCHAR 00C8
ENCODING 200
SWIDTH 1008 0
DWIDTH 7 0
BBX 6 7 0 1
BITMAP
20
10
FC
C0
F8
C0
FC
ENDCHAR
STARTCHAR 00C9
ENCODING 201
SWIDTH 1008 0
DWIDTH 7 0
BBX 6 7 0 1
BITMAP
10
10
FC
C0
F8
C0
FC
ENDCHAR
STARTCHAR 00CA
ENCODING 202
SWIDTH 1008 0
DWIDTH 7 0
BBX 6 7 0 1
BITMAP
30
78
FC
C0
F8
C0
FC
ENDCHAR
STARTCHAR 00CB
ENCODING 203
SWIDTH 1008 0
DWIDTH 7 0
BBX 6 7 0 1
BITMAP
78
00
FC
C0
F8
C0
FC
ENDCHAR
STARTCHAR 00CC
ENCODING 204
SWIDTH 1008 0
DWIDTH 7 0
BBX 5 7 1 1
BITMAP
20
20
F8
20
20
20
F8
ENDCHAR
STARTCHAR 00CD
ENCODING 205
SWIDTH 1008 0
DWIDTH 7 0
BBX 5 7 1 1
BITMAP
20
20
F8
20
20
20
F8
ENDCHAR
STARTCHAR 00CE
ENCODING 206
SWIDTH 1008 0
DWIDTH 7 0
BBX 5 7 1 1
BITMAP
20
70
F8
20
20
20
F8
ENDCHAR
STARTCHAR 00CF
ENCODING 207
SWIDTH 1008 0
DWIDTH 7 0
BBX 5 7 1 1
BITMAP
D8
00
F8
20
20
20
F8
ENDCHAR
STARTCHAR 00D0
ENCODING 208
SWIDTH 1008 0
DWIDTH 7 0
BBX 6 7 0 1
BITMAP
70
78
6C
EC
6C
78
70
ENDCHAR
STARTCHAR 00D1
ENCODING 209
SWIDTH 1008 0
DWIDTH 7 0
BBX 6 7 0 1
BITMAP
28
50
EC
EC
FC
DC
DC
ENDCHAR
STARTCHAR 00D2
ENCODING 210
SWIDTH 1008 0
DWIDTH 7 0
BBX 6 7 0 1
BITMAP
20
10
78
CC
CC
CC
78
ENDCHAR
STARTCHAR 00D3
ENCODING 211
SWIDTH 1008 0
DWIDTH 7 0
BBX 6 7 0 1
BITMAP
10
10
78
CC
CC
CC
78
ENDCHAR
STARTCHAR 00D4
ENCODING 212
SWIDTH 1008 0
DWIDTH 7 0
BBX 6 7 0 1
BITMAP
30
78
78
CC
CC
CC
78
ENDCHAR
STARTCHAR 00D5
ENCODING 213
SWIDTH 1008 0
DWIDTH 7 0
BBX 6 7 0 1
BITMAP
28
50
78
CC
CC
CC
78
ENDCHAR
STARTCHAR 00D6
ENCODING 214
SWIDTH 1008 0
DWIDTH 7 0
BBX 6 7 0 1
BITMAP
78
00
78
CC
CC
CC
78
ENDCHAR
STARTCHAR 00D7
ENCODING 215
SWIDTH 1008 0
DWIDTH 7 0
BBX 4 5 1 2
BITMAP
90
60
20
60
90
ENDCHAR
STARTCHAR 00D8
ENCODING 216
SWIDTH 1008 0
DWIDTH 7 0
BBX 6 7 0 1
BITMAP
78
CC
DC
DC
EC
CC
78
ENDCHAR
STARTCHAR 00D9
ENCODING 217
SWIDTH 1008 0
DWIDTH 7 0
BBX 6 7 0 1
BITMAP
20
10
CC
CC
CC
CC
78
ENDCHAR
STARTCHAR 00DA
ENCODING 218
SWIDTH 1008 0
DWIDTH 7 0
BBX 6 7 0 1
BITMAP
10
10
CC
CC
CC
CC
78
ENDCHAR
STARTCHAR 00DB
ENCODING 219
SWIDTH 1008 0
DWIDTH 7 0
BBX 6 7 0 1
BITMAP
30
78
00
CC
CC
CC
78
ENDCHAR
STARTCHAR 00DC
ENCODING 220
SWIDTH 1008 0
DWIDTH 7 0
BBX 6 7 0 1
BITMAP
78
00
CC
CC
CC
CC
78
ENDCHAR
STARTCHAR 00DD
ENCODING 221
SWIDTH 1008 0
DWIDTH 7 0
BBX 5 7 1 1
BITMAP
20
20
D8
D8
70
20
20
ENDCHAR
STARTCHAR 00DE
ENCODING 222
SWIDTH 1008 0
DWIDTH 7 0
BBX 6 7 0 1
BITMAP
C0
F8
CC
CC
CC
F8
C0
ENDCHAR
STARTCHAR 00DF
ENCODING 223
SWIDTH 1008 0
DWIDTH 7 0
BBX 5 7 1 1
BITMAP
70
D8
D8
F0
D8
D8
F0
ENDCHAR
STARTCHAR 00E0
ENCODING 224
SWIDTH 1008 0
DWIDTH 7 0
BBX 6 7 0 1
BITMAP
20
10
78
0C
7C
CC
7C
ENDCHAR
STARTCHAR 00E1
ENCODING 225
SWIDTH 1008 0
DWIDTH 7 0
BBX 6 7 0 1
BITMAP
10
10
78
0C
7C
CC
7C
ENDCHAR
STARTCHAR 00E2
ENCODING 226
SWIDTH 1008 0
DWIDTH 7 0
BBX 6 7 0 1
BITMAP
30
78
78
0C
7C
CC
7C
ENDCHAR
STARTCHAR 00E3
ENCODING 227
SWIDTH 1008 0
DWIDTH 7 0
BBX 6 7 0 1
BITMAP
28
50
78
0C
7C
CC
7C
ENDCHAR
STARTCHAR 00E4
ENCODING 228
SWIDTH 1008 0
DWIDTH 7 0
BBX 6 7 0 1
BITMAP
78
00
78
0C
7C
CC
7C
ENDCHAR
STARTCHAR 00E5
ENCODING 229
SWIDTH 1008 0
DWIDTH 7 0
BBX 6 7 0 1
BITMAP
10
30
78
0C
7C
CC
7C
ENDCHAR
STARTCHAR 00E6
ENCODING 230
SWIDTH 1008 0
DWIDTH 7 0
BBX 6 5 0 1
BITMAP
78
1C
7C
D0
78
ENDCHAR
STARTCHAR 00E7
ENCODING 231
SWIDTH 1008 0
DWIDTH 7 0
BBX 6 6 0 0
BITMAP
7C
C0
C0
7C
10
20
ENDCHAR
STARTCHAR 00E8
ENCODING 232
SWIDTH 1008 0
DWIDTH 7 0
BBX 6 7 0 1
BITMAP
20
10
78
CC
FC
C0
78
ENDCHAR
STARTCHAR 00E9
ENCODING 233
SWIDTH 1008 0
DWIDTH 7 0
BBX 6 7 0 1
BITMAP
10
10
78
CC
FC
C0
78
ENDCHAR
STARTCHAR 00EA
ENCODING 234
SWIDTH 1008 0
DWIDTH 7 0
BBX 6 7 0 1
BITMAP
30
78
78
CC
FC
C0
78
ENDCHAR
STARTCHAR 00EB
ENCODING 235
SWIDTH 1008 0
DWIDTH 7 0
BBX 6 7 0 1
BITMAP
78
00
78
CC
FC
C0
78
ENDCHAR
STARTCHAR 00EC
ENCODING 236
SWIDTH 1008 0
DWIDTH 7 0
BBX 5 7 1 1
BITMAP
40
20
00
60
20
20
F8
ENDCHAR
STARTCHAR 00ED
ENCODING 237
SWIDTH 1008 0
DWIDTH 7 0
BBX 5 7 1 1
BITMAP
20
20
00
60
20
20
F8
ENDCHAR
STARTCHAR 00EE
ENCODING 238
SWIDTH 1008 0
DWIDTH 7 0
BBX 5 7 1 1
BITMAP
60
F0
00
60
20
20
F8
ENDCHAR
STARTCHAR 00EF
ENCODING 239
SWIDTH 1008 0
DWIDTH 7 0
BBX 5 7 1 1
BITMAP
F0
00
60
20
20
20
F8
ENDCHAR
STARTCHAR 00F0
ENCODING 240
SWIDTH 1008 0
DWIDTH 7 0
BBX 6 7 0 1
BITMAP
68
70
90
78
CC
CC
78
ENDCHAR
STARTCHAR 00F1
ENCODING 241
SWIDTH 1008 0
DWIDTH 7 0
BBX 6 7 0 1
BITMAP
28
50
F8
CC
CC
CC
CC
ENDCHAR
STARTCHAR 00F2
ENCODING 242
SWIDTH 1008 0
DWIDTH 7 0
BBX 6 7 0 1
BITMAP
20
10
78
CC
CC
CC
78
ENDCHAR
STARTCHAR 00F3
ENCODING 243
SWIDTH 1008 0
DWIDTH 7 0
BBX 6 7 0 1
BITMAP
10
10
78
CC
CC
CC
78
ENDCHAR
STARTCHAR 00F4
ENCODING 244
SWIDTH 1008 0
DWIDTH 7 0
BBX 6 7 0 1
BITMAP
30
78
78
CC
CC
CC
78
ENDCHAR
STARTCHAR 00F5
ENCODING 245
SWIDTH 1008 0
DWIDTH 7 0
BBX 6 7 0 1
BITMAP
28
50
78
CC
CC
CC
78
ENDCHAR
STARTCHAR 00F6
ENCODING 246
SWIDTH 1008 0
DWIDTH 7 0
BBX 6 7 0 1
BITMAP
78
00
78
CC
CC
CC
78
ENDCHAR
STARTCHAR 00F7
ENCODING 247
SWIDTH 1008 0
DWIDTH 7 0
BBX 5 5 1 2
BITMAP
20
00
F8
00
20
ENDCHAR
STARTCHAR 00F8
ENCODING 248
SWIDTH 1008 0
DWIDTH 7 0
BBX 6 5 0 1
BITMAP
78
DC
DC
EC
78
ENDCHAR
STARTCHAR 00F9
ENCODING 249
SWIDTH 1008 0
DWIDTH 7 0
BBX 6 7 0 1
BITMAP
20
10
CC
CC
CC
CC
7C
ENDCHAR
STARTCHAR 00FA
ENCODING 250
SWIDTH 1008 0
DWIDTH 7 0
BBX 6 7 0 1
BITMAP
10
10
CC
CC
CC
CC
7C
ENDCHAR
STARTCHAR 00FB
ENCODING 251
SWIDTH 1008 0
DWIDTH 7 0
BBX 6 7 0 1
BITMAP
30
78
00
CC
CC
CC
7C
ENDCHAR
STARTCHAR 00FC
ENCODING 252
SWIDTH 1008 0
DWIDTH 7 0
BBX 6 7 0 1
BITMAP
78
00
CC
CC
CC
CC
7C
ENDCHAR
STARTCHAR 00FD
ENCODING 253
SWIDTH 1008 0
DWIDTH 7 0
BBX 6 8 0 0
BITMAP
10
10
CC
CC
CC
7C
0C
78
ENDCHAR
STARTCHAR 00FE
ENCODING 254
SWIDTH 1008 0
DWIDTH 7 0
BBX 6 8 0 0
BITMAP
C0
C0
F8
CC
CC
F8
C0
C0
ENDCHAR
STARTCHAR 00FF
ENCODING 255
SWIDTH 1008 0
DWIDTH 7 0
BBX 6 8 0 0
BITMAP
78
00
CC
CC
CC
7C
0C
78
ENDCHAR
STARTCHAR 0100
ENCODING 256
SWIDTH 1008 0
DWIDTH 7 0
BBX 6 7 0 1
BITMAP
78
00
30
78
CC
FC
CC
ENDCHAR
STARTCHAR 0101
ENCODING 257
SWIDTH 1008 0
DWIDTH 7 0
BBX 6 7 0 1
BITMAP
78
00
78
0C
7C
CC
7C
ENDCHAR
STARTCHAR 0102
ENCODING 258
SWIDTH 1008 0
DWIDTH 7 0
BBX 6 7 0 1
BITMAP
48
30
30
78
CC
FC
CC
ENDCHAR
STARTCHAR 0103
ENCODING 259
SWIDTH 1008 0
DWIDTH 7 0
BBX 6 7 0 1
BITMAP
48
30
78
0C
7C
CC
7C
ENDCHAR
STARTCHAR 0104
ENCODING 260
SWIDTH 1008 0
DWIDTH 7 0
BBX 6 8 0 0
BITMAP
30
78
CC
FC
CC
08
10
0C
ENDCHAR
STARTCHAR 0105
ENCODING 261
SWIDTH 1008 0
DWIDTH 7 0
BBX 6 8 0 0
BITMAP
78
0C
7C
CC
7C
10
20
10
ENDCHAR
STARTCHAR 0106
ENCODING 262
SWIDTH 1008 0
DWIDTH 7 0
BBX 6 7 0 1
BITMAP
10
10
38
6C
C0
6C
38
ENDCHAR
STARTCHAR 0107
ENCODING 263
SWIDTH 1008 0
DWIDTH 7 0
BBX 6 7 0 1
BITMAP
10
10
7C
C0
C0
C0
7C
ENDCHAR
STARTCHAR 0108
ENCODING 264
SWIDTH 1008 0
DWIDTH 7 0
BBX 6 7 0 1
BITMAP
30
78
38
6C
C0
6C
38
ENDCHAR
STARTCHAR 0109
ENCODING 265
SWIDTH 1008 0
DWIDTH 7 0
BBX 6 7 0 1
BITMAP
30
78
7C
C0
C0
C0
7C
ENDCHAR
STARTCHAR 010A
ENCODING 266
SWIDTH 1008 0
DWIDTH 7 0
BBX 6 7 0 1
BITMAP
10
00
38
6C
C0
6C
38
ENDCHAR
STARTCHAR 010B
ENCODING 267
SWIDTH 1008 0
DWIDTH 7 0
BBX 6 7 0 1
BITMAP
10
00
7C
C0
C0
C0
7C
ENDCHAR
STARTCHAR 010C
ENCODING 268
SWIDTH 1008 0
DWIDTH 7 0
BBX 6 7 0 1
BITMAP
6C
38
38
6C
C0
6C
38
ENDCHAR
STARTCHAR 010D
ENCODING 269
SWIDTH 1008 0
DWIDTH 7 0
BBX 6 7 0 1
BITMAP
78
30
7C
C0
C0
C0
7C
ENDCHAR
STARTCHAR 010E
ENCODING 270
SWIDTH 1008 0
DWIDTH 7 0
BBX 6 7 0 1
BITMAP
78
30
F0
D8
CC
D8
F0
ENDCHAR
STARTCHAR 010F
ENCODING 271
SWIDTH 1008 0
DWIDTH 7 0
BBX 7 7 0 1
BITMAP
16
16
74
D0
D0
D0
70
ENDCHAR
STARTCHAR 0110
ENCODING 272
SWIDTH 1008 0
DWIDTH 7 0
BBX 6 7 0 1
BITMAP
70
78
6C
EC
6C
78
70
ENDCHAR
STARTCHAR 0111
ENCODING 273
SWIDTH 1008 0
DWIDTH 7 0
BBX 6 7 0 1
BITMAP
18
1C
78
D8
D8
D8
78
ENDCHAR
STARTCHAR 0112
ENCODING 274
SWIDTH 1008 0
DWIDTH 7 0
BBX 6 7 0 1
BITMAP
78
00
FC
C0
F8
C0
FC
ENDCHAR
STARTCHAR 0113
ENCODING 275
SWIDTH 1008 0
DWIDTH 7 0
BBX 6 7 0 1
BITMAP
78
00
78
CC
FC
C0
78
ENDCHAR
STARTCHAR 0114
ENCODING 276
SWIDTH 1008 0
DWIDTH 7 0
BBX 6 7 0 1
BITMAP
48
30
FC
C0
F8
C0
FC
ENDCHAR
STARTCHAR 0115
ENCODING 277
SWIDTH 1008 0
DWIDTH 7 0
BBX 6 7 0 1
BITMAP
48
30
78
CC
FC
C0
78
ENDCHAR
STARTCHAR 0116
ENCODING 278
SWIDTH 1008 0
DWIDTH 7 0
BBX 6 7 0 1
BITMAP
10
00
FC
C0
F8
C0
FC
ENDCHAR
STARTCHAR 0117
ENCODING 279
SWIDTH 1008 0
DWIDTH 7 0
BBX 6 7 0 1
BITMAP
10
00
78
CC
FC
C0
78
ENDCHAR
STARTCHAR 0118
ENCODING 280
SWIDTH 1008 0
DWIDTH 7 0
BBX 6 8 0 0
BITMAP
FC
C0
F8
C0
FC
10
20
10
ENDCHAR
STARTCHAR 0119
ENCODING 281
SWIDTH 1008 0
DWIDTH 7 0
BBX 6 8 0 0
BITMAP
78
CC
FC
C0
78
10
20
10
ENDCHAR
STARTCHAR 011A
ENCODING 282
SWIDTH 1008 0
DWIDTH 7 0
BBX 6 7 0 1
BITMAP
78
30
FC
C0
F8
C0
FC
ENDCHAR
STARTCHAR 011B
ENCODING 283
SWIDTH 1008 0
DWIDTH 7 0
BBX 6 7 0 1
BITMAP
78
30
78
CC
FC
C0
78
ENDCHAR
STARTCHAR 011C
ENCODING 284
SWIDTH 1008 0
DWIDTH 7 0
BBX 6 7 0 1
BITMAP
30
78
7C
C0
DC
CC
7C
ENDCHAR
STARTCHAR 011D
ENCODING 285
SWIDTH 1008 0
DWIDTH 7 0
BBX 6 8 0 0
BITMAP
30
78
7C
CC
CC
7C
0C
78
ENDCHAR
STARTCHAR 011E
ENCODING 286
SWIDTH 1008 0
DWIDTH 7 0
BBX 6 7 0 1
BITMAP
48
30
7C
C0
DC
CC
7C
ENDCHAR
STARTCHAR 011F
ENCODING 287
SWIDTH 1008 0
DWIDTH 7 0
BBX 6 8 0 0
BITMAP
48
30
7C
CC
CC
7C
0C
78
ENDCHAR
STARTCHAR 0120
ENCODING 288
SWIDTH 1008 0
DWIDTH 7 0
BBX 6 7 0 1
BITMAP
10
00
7C
C0
DC
CC
7C
ENDCHAR
STARTCHAR 0121
ENCODING 289
SWIDTH 1008 0
DWIDTH 7 0
BBX 6 8 0 0
BITMAP
10
00
7C
CC
CC
7C
0C
78
ENDCHAR
STARTCHAR 0122
ENCODING 290
SWIDTH 1008 0
DWIDTH 7 0
BBX 6 8 0 0
BITMAP
3C
60
C0
DC
6C
3C
10
20
ENDCHAR
STARTCHAR 0123
ENCODING 291
SWIDTH 1008 0
DWIDTH 7 0
BBX 6 8 0 0
BITMAP
10
20
7C
CC
CC
7C
0C
78
ENDCHAR
STARTCHAR 0124
ENCODING 292
SWIDTH 1008 0
DWIDTH 7 0
BBX 6 7 0 1
BITMAP
30
FC
CC
CC
FC
CC
CC
ENDCHAR
STARTCHAR 0125
ENCODING 293
SWIDTH 1008 0
DWIDTH 7 0
BBX 6 7 0 1
BITMAP
30
F8
C0
F8
CC
CC
CC
ENDCHAR
STARTCHAR 0126
ENCODING 294
SWIDTH 1008 0
DWIDTH 7 0
BBX 6 7 0 1
BITMAP
CC
FC
CC
FC
CC
CC
CC
ENDCHAR
STARTCHAR 0127
ENCODING 295
SWIDTH 1008 0
DWIDTH 7 0
BBX 6 7 0 1
BITMAP
60
F0
60
78
6C
6C
6C
ENDCHAR
STARTCHAR 0128
ENCODING 296
SWIDTH 1008 0
DWIDTH 7 0
BBX 5 7 1 1
BITMAP
48
B0
F8
20
20
20
F8
ENDCHAR
STARTCHAR 0129
ENCODING 297
SWIDTH 1008 0
DWIDTH 7 0
BBX 5 7 1 1
BITMAP
48
B0
00
60
20
20
F8
ENDCHAR
STARTCHAR 012A
ENCODING 298
SWIDTH 1008 0
DWIDTH 7 0
BBX 5 7 1 1
BITMAP
F8
00
F8
20
20
20
F8
ENDCHAR
STARTCHAR 012B
ENCODING 299
SWIDTH 1008 0
DWIDTH 7 0
BBX 5 7 1 1
BITMAP
F0
00
60
20
20
20
F8
ENDCHAR
STARTCHAR 012C
ENCODING 300
SWIDTH 1008 0
DWIDTH 7 0
BBX 5 7 1 1
BITMAP
50
20
F8
20
20
20
F8
ENDCHAR
STARTCHAR 012D
ENCODING 301
SWIDTH 1008 0
DWIDTH 7 0
BBX 5 7 1 1
BITMAP
90
60
00
60
20
20
F8
ENDCHAR
STARTCHAR 012E
ENCODING 302
SWIDTH 1008 0
DWIDTH 7 0
BBX 5 8 1 0
BITMAP
F8
20
20
20
F8
20
40
20
ENDCHAR
STARTCHAR 012F
ENCODING 303
SWIDTH 1008 0
DWIDTH 7 0
BBX 5 8 1 0
BITMAP
20
00
60
20
F8
20
40
20
ENDCHAR
STARTCHAR 0130
ENCODING 304
SWIDTH 1008 0
DWIDTH 7 0
BBX 5 7 1 1
BITMAP
20
00
F8
20
20
20
F8
ENDCHAR
STARTCHAR 0131
ENCODING 305
SWIDTH 1008 0
DWIDTH 7 0
BBX 5 5 1 1
BITMAP
60
20
20
20
F8
ENDCHAR
STARTCHAR 0132
ENCODING 306
SWIDTH 1008 0
DWIDTH 7 0
BBX 6 7 0 1
BITMAP
EC
6C
6C
6C
EC
0C
78
ENDCHAR
STARTCHAR 0133
ENCODING 307
SWIDTH 1008 0
DWIDTH 7 0
BBX 6 8 0 0
BITMAP
6C
00
FC
6C
6C
6C
0C
38
ENDCHAR
STARTCHAR 0134
ENCODING 308
SWIDTH 1008 0
DWIDTH 7 0
BBX 6 7 0 1
BITMAP
18
2C
0C
0C
0C
CC
78
ENDCHAR
STARTCHAR 0135
ENCODING 309
SWIDTH 1008 0
DWIDTH 7 0
BBX 5 8 1 0
BITMAP
30
58
00
30
30
30
30
E0
ENDCHAR
STARTCHAR 0136
ENCODING 310
SWIDTH 1008 0
DWIDTH 7 0
BBX 6 8 0 0
BITMAP
D8
D0
E0
F0
D8
DC
20
60
ENDCHAR
STARTCHAR 0137
ENCODING 311
SWIDTH 1008 0
DWIDTH 7 0
BBX 6 8 0 0
BITMAP
C0
CC
D8
F0
D8
CC
20
60
ENDCHAR
STARTCHAR 0138
ENCODING 312
SWIDTH 1008 0
DWIDTH 7 0
BBX 6 5 0 1
BITMAP
CC
D8
F0
D8
CC
ENDCHAR
STARTCHAR 0139
ENCODING 313
SWIDTH 1008 0
DWIDTH 7 0
BBX 5 7 1 1
BITMAP
20
C0
C0
C0
C0
C0
F8
ENDCHAR
STARTCHAR 013A
ENCODING 314
SWIDTH 1008 0
DWIDTH 7 0
BBX 5 7 0 1
BITMAP
10
20
60
20
20
20
F8
ENDCHAR
STARTCHAR 013B
ENCODING 315
SWIDTH 1008 0
DWIDTH 7 0
BBX 5 8 1 0
BITMAP
C0
C0
C0
C0
C0
F8
20
40
ENDCHAR
STARTCHAR 013C
ENCODING 316
SWIDTH 1008 0
DWIDTH 7 0
BBX 5 8 1 0
BITMAP
60
20
20
20
20
F8
20
40
ENDCHAR
STARTCHAR 013D
ENCODING 317
SWIDTH 1008 0
DWIDTH 7 0
BBX 5 7 1 1
BITMAP
D8
D8
D0
C0
C0
C0
F8
ENDCHAR
STARTCHAR 013E
ENCODING 318
SWIDTH 1008 0
DWIDTH 7 0
BBX 6 7 0 1
BITMAP
6C
2C
28
20
20
20
F8
ENDCHAR
STARTCHAR 013F
ENCODING 319
SWIDTH 1008 0
DWIDTH 7 0
BBX 5 7 1 1
BITMAP
C0
C0
F0
F0
C0
C0
F8
ENDCHAR
STARTCHAR 0140
ENCODING 320
SWIDTH 1008 0
DWIDTH 7 0
BBX 6 7 0 1
BITMAP
60
20
2C
2C
20
20
F8
ENDCHAR
STARTCHAR 0141
ENCODING 321
SWIDTH 1008 0
DWIDTH 7 0
BBX 6 7 0 1
BITMAP
60
60
60
E0
60
60
7C
ENDCHAR
STARTCHAR 0142
ENCODING 322
SWIDTH 1008 0
DWIDTH 7 0
BBX 5 7 1 1
BITMAP
60
20
30
60
20
20
F8
ENDCHAR
STARTCHAR 0143
ENCODING 323
SWIDTH 1008 0
DWIDTH 7 0
BBX 6 7 0 1
BITMAP
10
10
EC
EC
FC
DC
DC
ENDCHAR
STARTCHAR 0144
ENCODING 324
SWIDTH 1008 0
DWIDTH 7 0
BBX 6 7 0 1
BITMAP
10
10
F8
CC
CC
CC
CC
ENDCHAR
STARTCHAR 0145
ENCODING 325
SWIDTH 1008 0
DWIDTH 7 0
BBX 6 8 0 0
BITMAP
EC
EC
FC
DC
DC
CC
10
20
ENDCHAR
STARTCHAR 0146
ENCODING 326
SWIDTH 1008 0
DWIDTH 7 0
BBX 6 7 0 0
BITMAP
F8
CC
CC
CC
CC
10
20
ENDCHAR
STARTCHAR 0147
ENCODING 327
SWIDTH 1008 0
DWIDTH 7 0
BBX 6 7 0 1
BITMAP
78
30
EC
EC
FC
DC
DC
ENDCHAR
STARTCHAR 0148
ENCODING 328
SWIDTH 1008 0
DWIDTH 7 0
BBX 6 7 0 1
BITMAP
78
30
F8
CC
CC
CC
CC
ENDCHAR
STARTCHAR 014A
ENCODING 330
SWIDTH 1008 0
DWIDTH 7 0
BBX 6 8 0 0
BITMAP
EC
EC
FC
DC
DC
CC
0C
38
ENDCHAR
STARTCHAR 014B
ENCODING 331
SWIDTH 1008 0
DWIDTH 7 0
BBX 6 7 0 0
BITMAP
F8
CC
CC
CC
CC
0C
38
ENDCHAR
STARTCHAR 014C
ENCODING 332
SWIDTH 1008 0
DWIDTH 7 0
BBX 6 7 0 1
BITMAP
78
00
78
CC
CC
CC
78
ENDCHAR
STARTCHAR 014D
ENCODING 333
SWIDTH 1008 0
DWIDTH 7 0
BBX 6 7 0 1
BITMAP
78
00
78
CC
CC
CC
78
ENDCHAR
STARTCHAR 014E
ENCODING 334
SWIDTH 1008 0
DWIDTH 7 0
BBX 6 7 0 1
BITMAP
48
30
78
CC
CC
CC
78
ENDCHAR
STARTCHAR 014F
ENCODING 335
SWIDTH 1008 0
DWIDTH 7 0
BBX 6 7 0 1
BITMAP
48
30
78
CC
CC
CC
78
ENDCHAR
STARTCHAR 0150
ENCODING 336
SWIDTH 1008 0
DWIDTH 7 0
BBX 6 7 0 1
BITMAP
28
50
78
CC
CC
CC
78
ENDCHAR
STARTCHAR 0151
ENCODING 337
SWIDTH 1008 0
DWIDTH 7 0
BBX 6 7 0 1
BITMAP
28
50
78
CC
CC
CC
78
ENDCHAR
STARTCHAR 0152
ENCODING 338
SWIDTH 1008 0
DWIDTH 7 0
BBX 6 7 0 1
BITMAP
7C
D0
D0
DC
D0
D0
7C
ENDCHAR
STARTCHAR 0153
ENCODING 339
SWIDTH 1008 0
DWIDTH 7 0
BBX 6 5 0 1
BITMAP
78
DC
DC
D0
78
ENDCHAR
STARTCHAR 0154
ENCODING 340
SWIDTH 1008 0
DWIDTH 7 0
BBX 6 7 0 1
BITMAP
10
10
F8
DC
F0
D8
DC
ENDCHAR
STARTCHAR 0155
ENCODING 341
SWIDTH 1008 0
DWIDTH 7 0
BBX 5 7 1 1
BITMAP
20
20
F8
C0
C0
C0
C0
ENDCHAR
STARTCHAR 0156
ENCODING 342
SWIDTH 1008 0
DWIDTH 7 0
BBX 6 8 0 0
BITMAP
F8
CC
DC
F0
D8
DC
10
20
ENDCHAR
STARTCHAR 0157
ENCODING 343
SWIDTH 1008 0
DWIDTH 7 0
BBX 5 7 1 0
BITMAP
F8
C0
C0
C0
C0
40
C0
ENDCHAR
STARTCHAR 0158
ENCODING 344
SWIDTH 1008 0
DWIDTH 7 0
BBX 6 7 0 1
BITMAP
30
10
F8
DC
F0
D8
DC
ENDCHAR
STARTCHAR 0159
ENCODING 345
SWIDTH 1008 0
DWIDTH 7 0
BBX 5 7 1 1
BITMAP
58
30
F8
C0
C0
C0
C0
ENDCHAR
STARTCHAR 015A
ENCODING 346
SWIDTH 1008 0
DWIDTH 7 0
BBX 6 7 0 1
BITMAP
10
10
78
C0
78
0C
F8
ENDCHAR
STARTCHAR 015B
ENCODING 347
SWIDTH 1008 0
DWIDTH 7 0
BBX 6 7 0 1
BITMAP
10
10
78
C0
78
0C
F8
ENDCHAR
STARTCHAR 015C
ENCODING 348
SWIDTH 1008 0
DWIDTH 7 0
BBX 6 7 0 1
BITMAP
30
78
78
C0
78
0C
F8
ENDCHAR
STARTCHAR 015D
ENCODING 349
SWIDTH 1008 0
DWIDTH 7 0
BBX 6 7 0 1
BITMAP
30
78
78
C0
78
0C
F8
ENDCHAR
STARTCHAR 015E
ENCODING 350
SWIDTH 1008 0
DWIDTH 7 0
BBX 6 8 0 0
BITMAP
78
C0
78
0C
CC
78
10
20
ENDCHAR
STARTCHAR 015F
ENCODING 351
SWIDTH 1008 0
DWIDTH 7 0
BBX 6 7 0 0
BITMAP
78
C0
78
0C
F8
10
20
ENDCHAR
STARTCHAR 0160
ENCODING 352
SWIDTH 1008 0
DWIDTH 7 0
BBX 6 7 0 1
BITMAP
78
30
78
C0
78
0C
F8
ENDCHAR
STARTCHAR 0161
ENCODING 353
SWIDTH 1008 0
DWIDTH 7 0
BBX 6 7 0 1
BITMAP
78
30
78
C0
78
0C
F8
ENDCHAR
STARTCHAR 0164
ENCODING 356
SWIDTH 1008 0
DWIDTH 7 0
BBX 5 7 1 1
BITMAP
50
20
F8
20
20
20
20
ENDCHAR
STARTCHAR 0165
ENCODING 357
SWIDTH 1008 0
DWIDTH 7 0
BBX 5 7 1 1
BITMAP
50
20
20
F8
20
20
20
ENDCHAR
STARTCHAR 0166
ENCODING 358
SWIDTH 1008 0
DWIDTH 7 0
BBX 5 7 1 1
BITMAP
F8
20
20
30
60
20
20
ENDCHAR
STARTCHAR 0167
ENCODING 359
SWIDTH 1008 0
DWIDTH 7 0
BBX 5 7 1 1
BITMAP
20
20
F8
20
30
60
20
ENDCHAR
STARTCHAR 0168
ENCODING 360
SWIDTH 1008 0
DWIDTH 7 0
BBX 6 7 0 1
BITMAP
28
50
CC
CC
CC
CC
78
ENDCHAR
STARTCHAR 0169
ENCODING 361
SWIDTH 1008 0
DWIDTH 7 0
BBX 6 7 0 1
BITMAP
28
50
CC
CC
CC
CC
7C
ENDCHAR
STARTCHAR 016A
ENCODING 362
SWIDTH 1008 0
DWIDTH 7 0
BBX 6 7 0 1
BITMAP
78
00
CC
CC
CC
CC
78
ENDCHAR
STARTCHAR 016B
ENCODING 363
SWIDTH 1008 0
DWIDTH 7 0
BBX 6 7 0 1
BITMAP
78
00
CC
CC
CC
CC
7C
ENDCHAR
STARTCHAR 016C
ENCODING 364
SWIDTH 1008 0
DWIDTH 7 0
BBX 6 7 0 1
BITMAP
48
30
CC
CC
CC
CC
78
ENDCHAR
STARTCHAR 016D
ENCODING 365
SWIDTH 1008 0
DWIDTH 7 0
BBX 6 7 0 1
BITMAP
48
30
CC
CC
CC
CC
7C
ENDCHAR
STARTCHAR 016E
ENCODING 366
SWIDTH 1008 0
DWIDTH 7 0
BBX 6 7 0 1
BITMAP
30
78
B4
CC
CC
CC
78
ENDCHAR
STARTCHAR 016F
ENCODING 367
SWIDTH 1008 0
DWIDTH 7 0
BBX 6 7 0 1
BITMAP
30
78
B4
CC
CC
CC
7C
ENDCHAR
STARTCHAR 0170
ENCODING 368
SWIDTH 1008 0
DWIDTH 7 0
BBX 6 7 0 1
BITMAP
28
50
CC
CC
CC
CC
78
ENDCHAR
STARTCHAR 0171
ENCODING 369
SWIDTH 1008 0
DWIDTH 7 0
BBX 6 7 0 1
BITMAP
28
50
CC
CC
CC
CC
7C
ENDCHAR
STARTCHAR 0172
ENCODING 370
SWIDTH 1008 0
DWIDTH 7 0
BBX 6 8 0 0
BITMAP
CC
CC
CC
CC
78
10
20
10
ENDCHAR
STARTCHAR 0173
ENCODING 371
SWIDTH 1008 0
DWIDTH 7 0
BBX 6 8 0 0
BITMAP
CC
CC
CC
CC
7C
10
20
10
ENDCHAR
STARTCHAR 0174
ENCODING 372
SWIDTH 1008 0
DWIDTH 7 0
BBX 6 7 0 1
BITMAP
30
78
CC
DC
FC
FC
FC
ENDCHAR
STARTCHAR 0175
ENCODING 373
SWIDTH 1008 0
DWIDTH 7 0
BBX 6 7 0 1
BITMAP
30
78
00
DC
DC
DC
78
ENDCHAR
STARTCHAR 0176
ENCODING 374
SWIDTH 1008 0
DWIDTH 7 0
BBX 5 7 1 1
BITMAP
20
50
D8
D8
70
20
20
ENDCHAR
STARTCHAR 0177
ENCODING 375
SWIDTH 1008 0
DWIDTH 7 0
BBX 6 8 0 0
BITMAP
30
78
00
CC
CC
7C
0C
78
ENDCHAR
STARTCHAR 0178
ENCODING 376
SWIDTH 1008 0
DWIDTH 7 0
BBX 5 7 1 1
BITMAP
D8
00
D8
D8
70
20
20
ENDCHAR
STARTCHAR 0179
ENCODING 377
SWIDTH 1008 0
DWIDTH 7 0
BBX 6 7 0 1
BITMAP
10
10
FC
18
30
60
FC
ENDCHAR
STARTCHAR 017A
ENCODING 378
SWIDTH 1008 0
DWIDTH 7 0
BBX 6 7 0 1
BITMAP
10
10
FC
18
30
60
FC
ENDCHAR
STARTCHAR 017B
ENCODING 379
SWIDTH 1008 0
DWIDTH 7 0
BBX 6 7 0 1
BITMAP
10
00
FC
18
30
60
FC
ENDCHAR
STARTCHAR 017C
ENCODING 380
SWIDTH 1008 0
DWIDTH 7 0
BBX 6 7 0 1
BITMAP
10
00
FC
18
30
60
FC
ENDCHAR
STARTCHAR 017D
ENCODING 381
SWIDTH 1008 0
DWIDTH 7 0
BBX 6 7 0 1
BITMAP
78
30
FC
18
30
60
FC
ENDCHAR
STARTCHAR 017E
ENCODING 382
SWIDTH 1008 0
DWIDTH 7 0
BBX 6 7 0 1
BITMAP
78
30
FC
18
30
60
FC
ENDCHAR
STARTCHAR 017F
ENCODING 383
SWIDTH 1008 0
DWIDTH 7 0
BBX 3 7 3 1
BITMAP
E0
80
80
80
80
80
80
ENDCHAR
STARTCHAR 0192
ENCODING 402
SWIDTH 1008 0
DWIDTH 7 0
BBX 5 7 1 1
BITMAP
38
20
F8
20
20
20
C0
ENDCHAR
STARTCHAR 021A
ENCODING 538
SWIDTH 1008 0
DWIDTH 7 0
BBX 5 8 1 0
BITMAP
F8
20
20
20
20
20
20
40
ENDCHAR
STARTCHAR 021B
ENCODING 539
SWIDTH 1008 0
DWIDTH 7 0
BBX 5 8 1 0
BITMAP
20
20
F8
20
20
20
20
40
ENDCHAR
STARTCHAR 02BC
ENCODING 700
SWIDTH 1008 0
DWIDTH 7 0
BBX 2 3 0 5
BITMAP
C0
C0
80
ENDCHAR
STARTCHAR 02C6
ENCODING 710
SWIDTH 1008 0
DWIDTH 7 0
BBX 4 2 1 6
BITMAP
60
F0
ENDCHAR
STARTCHAR 02C7
ENCODING 711
SWIDTH 1008 0
DWIDTH 7 0
BBX 4 2 1 6
BITMAP
F0
60
ENDCHAR
STARTCHAR 02C9
ENCODING 713
SWIDTH 1008 0
DWIDTH 7 0
BBX 4 1 1 7
BITMAP
F0
ENDCHAR
STARTCHAR 02CA
ENCODING 714
SWIDTH 1008 0
DWIDTH 7 0
BBX 1 2 3 6
BITMAP
80
80
ENDCHAR
STARTCHAR 02CB
ENCODING 715
SWIDTH 1008 0
DWIDTH 7 0
BBX 1 2 3 6
BITMAP
80
80
ENDCHAR
STARTCHAR 02D7
ENCODING 727
SWIDTH 1008 0
DWIDTH 7 0
BBX 4 1 1 4
BITMAP
F0
ENDCHAR
STARTCHAR 02D8
ENCODING 728
SWIDTH 1008 0
DWIDTH 7 0
BBX 4 2 1 6
BITMAP
90
60
ENDCHAR
STARTCHAR 02D9
ENCODING 729
SWIDTH 1008 0
DWIDTH 7 0
BBX 1 1 3 7
BITMAP
80
ENDCHAR
STARTCHAR 02DA
ENCODING 730
SWIDTH 1008 0
DWIDTH 7 0
BBX 4 3 1 5
BITMAP
60
F0
60
ENDCHAR
STARTCHAR 02DB
ENCODING 731
SWIDTH 1008 0
DWIDTH 7 0
BBX 2 3 2 0
BITMAP
40
80
40
ENDCHAR
STARTCHAR 02DC
ENCODING 732
SWIDTH 1008 0
DWIDTH 7 0
BBX 4 2 1 6
BITMAP
50
A0
ENDCHAR
STARTCHAR 02DD
ENCODING 733
SWIDTH 1008 0
DWIDTH 7 0
BBX 4 2 1 6
BITMAP
50
A0
ENDCHAR
STARTCHAR 0300
ENCODING 768
SWIDTH 0 0
DWIDTH 0 0
BBX 2 2 -5 6
BITMAP
80
40
ENDCHAR
STARTCHAR 0301
ENCODING 769
SWIDTH 0 0
DWIDTH 0 0
BBX 2 2 -4 6
BITMAP
40
80
ENDCHAR
STARTCHAR 0326
ENCODING 806
SWIDTH 0 0
DWIDTH 0 0
BBX 2 3 -5 -3
BITMAP
40
40
C0
ENDCHAR
STARTCHAR 0335
ENCODING 821
SWIDTH 0 0
DWIDTH 0 0
BBX 3 1 -5 3
BITMAP
E0
ENDCHAR
STARTCHAR 037A
ENCODING 890
SWIDTH 1008 0
DWIDTH 7 0
BBX 2 2 3 0
BITMAP
80
C0
ENDCHAR
STARTCHAR 037E
ENCODING 894
SWIDTH 1008 0
DWIDTH 7 0
BBX 2 6 1 1
BITMAP
40
40
00
40
40
C0
ENDCHAR
STARTCHAR 0384
ENCODING 900
SWIDTH 1008 0
DWIDTH 7 0
BBX 1 2 3 6
BITMAP
80
80
ENDCHAR
STARTCHAR 0385
ENCODING 901
SWIDTH 1008 0
DWIDTH 7 0
BBX 5 2 1 6
BITMAP
A8
20
ENDCHAR
STARTCHAR 0386
ENCODING 902
SWIDTH 1008 0
DWIDTH 7 0
BBX 6 7 0 1
BITMAP
50
B8
6C
6C
7C
6C
6C
ENDCHAR
STARTCHAR 0387
ENCODING 903
SWIDTH 1008 0
DWIDTH 7 0
BBX 1 2 2 3
BITMAP
80
80
ENDCHAR
STARTCHAR 0388
ENCODING 904
SWIDTH 1008 0
DWIDTH 7 0
BBX 7 7 0 1
BITMAP
7E
A0
20
38
20
20
3E
ENDCHAR
STARTCHAR 0389
ENCODING 905
SWIDTH 1008 0
DWIDTH 7 0
BBX 7 7 0 1
BITMAP
66
A6
26
3E
26
26
26
ENDCHAR
STARTCHAR 038A
ENCODING 906
SWIDTH 1008 0
DWIDTH 7 0
BBX 6 7 0 1
BITMAP
5C
98
18
18
18
18
1C
ENDCHAR
STARTCHAR 038C
ENCODING 908
SWIDTH 1008 0
DWIDTH 7 0
BBX 7 7 0 1
BITMAP
5C
A6
26
26
26
26
1C
ENDCHAR
STARTCHAR 038E
ENCODING 910
SWIDTH 1008 0
DWIDTH 7 0
BBX 7 7 0 1
BITMAP
66
A6
26
1C
18
18
18
ENDCHAR
STARTCHAR 038F
ENCODING 911
SWIDTH 1008 0
DWIDTH 7 0
BBX 7 7 0 1
BITMAP
58
AC
66
66
66
2C
6E
ENDCHAR
STARTCHAR 0390
ENCODING 912
SWIDTH 1008 0
DWIDTH 7 0
BBX 5 7 0 1
BITMAP
98
20
60
20
20
20
18
ENDCHAR
STARTCHAR 0391
ENCODING 913
SWIDTH 1008 0
DWIDTH 7 0
BBX 6 7 0 1
BITMAP
30
78
CC
CC
FC
CC
CC
ENDCHAR
STARTCHAR 0392
ENCODING 914
SWIDTH 1008 0
DWIDTH 7 0
BBX 6 7 0 1
BITMAP
F8
CC
CC
F8
CC
CC
F8
ENDCHAR
STARTCHAR 0393
ENCODING 915
SWIDTH 1008 0
DWIDTH 7 0
BBX 5 7 1 1
BITMAP
F8
C0
C0
C0
C0
C0
C0
ENDCHAR
STARTCHAR 0394
ENCODING 916
SWIDTH 1008 0
DWIDTH 7 0
BBX 6 7 0 1
BITMAP
30
78
CC
CC
CC
CC
FC
ENDCHAR
STARTCHAR 0395
ENCODING 917
SWIDTH 1008 0
DWIDTH 7 0
BBX 6 7 0 1
BITMAP
FC
C0
C0
F8
C0
C0
FC
ENDCHAR
STARTCHAR 0396
ENCODING 918
SWIDTH 1008 0
DWIDTH 7 0
BBX 6 7 0 1
BITMAP
FC
1C
18
30
60
E0
FC
ENDCHAR
STARTCHAR 0397
ENCODING 919
SWIDTH 1008 0
DWIDTH 7 0
BBX 6 7 0 1
BITMAP
CC
CC
CC
FC
CC
CC
CC
ENDCHAR
STARTCHAR 0398
ENCODING 920
SWIDTH 1008 0
DWIDTH 7 0
BBX 6 7 0 1
BITMAP
78
CC
CC
FC
CC
CC
78
ENDCHAR
STARTCHAR 0399
ENCODING 921
SWIDTH 1008 0
DWIDTH 7 0
BBX 5 7 1 1
BITMAP
F8
20
20
20
20
20
F8
ENDCHAR
STARTCHAR 039A
ENCODING 922
SWIDTH 1008 0
DWIDTH 7 0
BBX 6 7 0 1
BITMAP
CC
D8
D0
E0
F0
D8
DC
ENDCHAR
STARTCHAR 039B
ENCODING 923
SWIDTH 1008 0
DWIDTH 7 0
BBX 6 7 0 1
BITMAP
30
78
CC
CC
CC
CC
CC
ENDCHAR
STARTCHAR 039C
ENCODING 924
SWIDTH 1008 0
DWIDTH 7 0
BBX 6 7 0 1
BITMAP
CC
FC
FC
DC
DC
CC
CC
ENDCHAR
STARTCHAR 039D
ENCODING 925
SWIDTH 1008 0
DWIDTH 7 0
BBX 6 7 0 1
BITMAP
CC
EC
EC
DC
DC
CC
CC
ENDCHAR
STARTCHAR 039E
ENCODING 926
SWIDTH 1008 0
DWIDTH 7 0
BBX 6 7 0 1
BITMAP
FC
00
00
78
00
00
FC
ENDCHAR
STARTCHAR 039F
ENCODING 927
SWIDTH 1008 0
DWIDTH 7 0
BBX 6 7 0 1
BITMAP
78
CC
CC
CC
CC
CC
78
ENDCHAR
STARTCHAR 03A0
ENCODING 928
SWIDTH 1008 0
DWIDTH 7 0
BBX 6 7 0 1
BITMAP
FC
CC
CC
CC
CC
CC
CC
ENDCHAR
STARTCHAR 03A1
ENCODING 929
SWIDTH 1008 0
DWIDTH 7 0
BBX 6 7 0 1
BITMAP
F8
CC
CC
CC
F8
C0
C0
ENDCHAR
STARTCHAR 03A3
ENCODING 931
SWIDTH 1008 0
DWIDTH 7 0
BBX 6 7 0 1
BITMAP
FC
6C
20
18
20
6C
FC
ENDCHAR
STARTCHAR 03A4
ENCODING 932
SWIDTH 1008 0
DWIDTH 7 0
BBX 5 7 1 1
BITMAP
F8
20
20
20
20
20
20
ENDCHAR
STARTCHAR 03A5
ENCODING 933
SWIDTH 1008 0
DWIDTH 7 0
BBX 5 7 1 1
BITMAP
D8
D8
D8
70
20
20
20
ENDCHAR
STARTCHAR 03A6
ENCODING 934
SWIDTH 1008 0
DWIDTH 7 0
BBX 6 7 0 1
BITMAP
10
78
DC
DC
DC
78
10
ENDCHAR
STARTCHAR 03A7
ENCODING 935
SWIDTH 1008 0
DWIDTH 7 0
BBX 6 7 0 1
BITMAP
CC
CC
78
30
78
CC
CC
ENDCHAR
STARTCHAR 03A8
ENCODING 936
SWIDTH 1008 0
DWIDTH 7 0
BBX 7 7 0 1
BITMAP
D6
D6
D6
7C
10
10
38
ENDCHAR
STARTCHAR 03A9
ENCODING 937
SWIDTH 1008 0
DWIDTH 7 0
BBX 6 7 0 1
BITMAP
30
78
CC
CC
CC
78
FC
ENDCHAR
STARTCHAR 03AA
ENCODING 938
SWIDTH 1008 0
DWIDTH 7 0
BBX 5 7 1 1
BITMAP
D8
00
F8
20
20
20
F8
ENDCHAR
STARTCHAR 03AB
ENCODING 939
SWIDTH 1008 0
DWIDTH 7 0
BBX 5 7 1 1
BITMAP
D8
00
D8
D8
70
20
20
ENDCHAR
STARTCHAR 03AC
ENCODING 940
SWIDTH 1008 0
DWIDTH 7 0
BBX 6 7 0 1
BITMAP
10
10
7C
CC
CC
CC
7C
ENDCHAR
STARTCHAR 03AD
ENCODING 941
SWIDTH 1008 0
DWIDTH 7 0
BBX 6 7 0 1
BITMAP
10
10
7C
C0
78
C0
7C
ENDCHAR
STARTCHAR 03AE
ENCODING 942
SWIDTH 1008 0
DWIDTH 7 0
BBX 6 8 0 0
BITMAP
10
10
D8
6C
6C
6C
6C
0C
ENDCHAR
STARTCHAR 03AF
ENCODING 943
SWIDTH 1008 0
DWIDTH 7 0
BBX 4 7 1 1
BITMAP
20
40
C0
40
40
40
30
ENDCHAR
STARTCHAR 03B0
ENCODING 944
SWIDTH 1008 0
DWIDTH 7 0
BBX 6 7 0 1
BITMAP
98
20
D8
6C
6C
6C
38
ENDCHAR
STARTCHAR 03B1
ENCODING 945
SWIDTH 1008 0
DWIDTH 7 0
BBX 6 5 0 1
BITMAP
7C
CC
CC
CC
7C
ENDCHAR
STARTCHAR 03B2
ENCODING 946
SWIDTH 1008 0
DWIDTH 7 0
BBX 6 8 0 0
BITMAP
78
CC
CC
F8
CC
CC
F8
C0
ENDCHAR
STARTCHAR 03B3
ENCODING 947
SWIDTH 1008 0
DWIDTH 7 0
BBX 6 6 0 0
BITMAP
CC
6C
6C
38
10
10
ENDCHAR
STARTCHAR 03B4
ENCODING 948
SWIDTH 1008 0
DWIDTH 7 0
BBX 6 7 0 1
BITMAP
1C
10
18
7C
CC
CC
78
ENDCHAR
STARTCHAR 03B5
ENCODING 949
SWIDTH 1008 0
DWIDTH 7 0
BBX 6 5 0 1
BITMAP
7C
C0
78
C0
7C
ENDCHAR
STARTCHAR 03B6
ENCODING 950
SWIDTH 1008 0
DWIDTH 7 0
BBX 6 8 0 0
BITMAP
78
20
60
C0
C0
78
0C
18
ENDCHAR
STARTCHAR 03B7
ENCODING 951
SWIDTH 1008 0
DWIDTH 7 0
BBX 6 6 0 0
BITMAP
D8
6C
6C
6C
6C
0C
ENDCHAR
STARTCHAR 03B8
ENCODING 952
SWIDTH 1008 0
DWIDTH 7 0
BBX 6 7 0 1
BITMAP
30
78
CC
FC
CC
78
30
ENDCHAR
STARTCHAR 03B9
ENCODING 953
SWIDTH 1008 0
DWIDTH 7 0
BBX 4 5 1 1
BITMAP
C0
40
40
40
30
ENDCHAR
STARTCHAR 03BA
ENCODING 954
SWIDTH 1008 0
DWIDTH 7 0
BBX 6 5 0 1
BITMAP
CC
D8
F0
D8
CC
ENDCHAR
STARTCHAR 03BB
ENCODING 955
SWIDTH 1008 0
DWIDTH 7 0
BBX 6 7 0 1
BITMAP
C0
60
20
30
78
CC
CC
ENDCHAR
STARTCHAR 03BC
ENCODING 956
SWIDTH 1008 0
DWIDTH 7 0
BBX 6 6 0 0
BITMAP
D8
D8
D8
D8
EC
C0
ENDCHAR
STARTCHAR 03BD
ENCODING 957
SWIDTH 1008 0
DWIDTH 7 0
BBX 6 5 0 1
BITMAP
CC
6C
6C
38
10
ENDCHAR
STARTCHAR 03BE
ENCODING 958
SWIDTH 1008 0
DWIDTH 7 0
BBX 5 8 0 0
BITMAP
F8
60
30
60
C0
70
18
10
ENDCHAR
STARTCHAR 03BF
ENCODING 959
SWIDTH 1008 0
DWIDTH 7 0
BBX 6 5 0 1
BITMAP
78
CC
CC
CC
78
ENDCHAR
STARTCHAR 03C0
ENCODING 960
SWIDTH 1008 0
DWIDTH 7 0
BBX 6 5 0 1
BITMAP
FC
78
78
78
EC
ENDCHAR
STARTCHAR 03C1
ENCODING 961
SWIDTH 1008 0
DWIDTH 7 0
BBX 6 6 0 0
BITMAP
78
CC
CC
F8
C0
C0
ENDCHAR
STARTCHAR 03C2
ENCODING 962
SWIDTH 1008 0
DWIDTH 7 0
BBX 6 6 0 0
BITMAP
78
C0
C0
78
0C
78
ENDCHAR
STARTCHAR 03C3
ENCODING 963
SWIDTH 1008 0
DWIDTH 7 0
BBX 6 5 0 1
BITMAP
7C
D0
D8
D8
70
ENDCHAR
STARTCHAR 03C4
ENCODING 964
SWIDTH 1008 0
DWIDTH 7 0
BBX 5 5 1 1
BITMAP
F8
20
20
20
38
ENDCHAR
STARTCHAR 03C5
ENCODING 965
SWIDTH 1008 0
DWIDTH 7 0
BBX 6 5 0 1
BITMAP
D8
6C
6C
6C
38
ENDCHAR
STARTCHAR 03C6
ENCODING 966
SWIDTH 1008 0
DWIDTH 7 0
BBX 6 6 0 0
BITMAP
58
DC
DC
DC
78
10
ENDCHAR
STARTCHAR 03C7
ENCODING 967
SWIDTH 1008 0
DWIDTH 7 0
BBX 6 6 0 0
BITMAP
CC
78
30
78
CC
CC
ENDCHAR
STARTCHAR 03C8
ENCODING 968
SWIDTH 1008 0
DWIDTH 7 0
BBX 7 7 0 0
BITMAP
10
D6
D6
D6
D6
7C
10
ENDCHAR
STARTCHAR 03C9
ENCODING 969
SWIDTH 1008 0
DWIDTH 7 0
BBX 6 5 0 1
BITMAP
48
DC
DC
DC
78
ENDCHAR
STARTCHAR 03CA
ENCODING 970
SWIDTH 1008 0
DWIDTH 7 0
BBX 5 7 0 1
BITMAP
D0
00
60
20
20
20
18
ENDCHAR
STARTCHAR 03CB
ENCODING 971
SWIDTH 1008 0
DWIDTH 7 0
BBX 6 7 0 1
BITMAP
78
00
D8
6C
6C
6C
38
ENDCHAR
STARTCHAR 03CC
ENCODING 972
SWIDTH 1008 0
DWIDTH 7 0
BBX 6 7 0 1
BITMAP
10
10
78
CC
CC
CC
78
ENDCHAR
STARTCHAR 03CD
ENCODING 973
SWIDTH 1008 0
DWIDTH 7 0
BBX 6 7 0 1
BITMAP
10
10
D8
6C
6C
6C
38
ENDCHAR
STARTCHAR 03CE
ENCODING 974
SWIDTH 1008 0
DWIDTH 7 0
BBX 6 7 0 1
BITMAP
10
10
48
DC
DC
DC
78
ENDCHAR
STARTCHAR 0400
ENCODING 1024
SWIDTH 1008 0
DWIDTH 7 0
BBX 6 7 0 1
BITMAP
20
10
FC
C0
F8
C0
FC
ENDCHAR
STARTCHAR 0401
ENCODING 1025
SWIDTH 1008 0
DWIDTH 7 0
BBX 6 7 0 1
BITMAP
78
00
FC
C0
F8
C0
FC
ENDCHAR
STARTCHAR 0402
ENCODING 1026
SWIDTH 1008 0
DWIDTH 7 0
BBX 6 8 0 0
BITMAP
F0
60
78
6C
6C
6C
6C
18
ENDCHAR
STARTCHAR 0403
ENCODING 1027
SWIDTH 1008 0
DWIDTH 7 0
BBX 5 7 1 1
BITMAP
20
20
F8
C8
C0
C0
C0
ENDCHAR
STARTCHAR 0404
ENCODING 1028
SWIDTH 1008 0
DWIDTH 7 0
BBX 6 7 0 1
BITMAP
38
6C
C0
F8
C0
6C
38
ENDCHAR
STARTCHAR 0405
ENCODING 1029
SWIDTH 1008 0
DWIDTH 7 0
BBX 6 7 0 1
BITMAP
78
CC
C0
78
0C
CC
78
ENDCHAR
STARTCHAR 0406
ENCODING 1030
SWIDTH 1008 0
DWIDTH 7 0
BBX 5 7 1 1
BITMAP
F8
20
20
20
20
20
F8
ENDCHAR
STARTCHAR 0407
ENCODING 1031
SWIDTH 1008 0
DWIDTH 7 0
BBX 5 7 1 1
BITMAP
D8
00
F8
20
20
20
F8
ENDCHAR
STARTCHAR 0408
ENCODING 1032
SWIDTH 1008 0
DWIDTH 7 0
BBX 6 7 0 1
BITMAP
0C
0C
0C
0C
0C
CC
78
ENDCHAR
STARTCHAR 0409
ENCODING 1033
SWIDTH 1008 0
DWIDTH 7 0
BBX 6 7 0 1
BITMAP
70
50
5C
54
54
D4
DC
ENDCHAR
STARTCHAR 040A
ENCODING 1034
SWIDTH 1008 0
DWIDTH 7 0
BBX 6 7 0 1
BITMAP
D0
D0
DC
F4
D4
D4
DC
ENDCHAR
STARTCHAR 040B
ENCODING 1035
SWIDTH 1008 0
DWIDTH 7 0
BBX 6 7 0 1
BITMAP
F0
60
78
6C
6C
6C
6C
ENDCHAR
STARTCHAR 040C
ENCODING 1036
SWIDTH 1008 0
DWIDTH 7 0
BBX 6 7 0 1
BITMAP
10
10
CC
D0
F8
CC
CC
ENDCHAR
STARTCHAR 040D
ENCODING 1037
SWIDTH 1008 0
DWIDTH 7 0
BBX 6 7 0 1
BITMAP
20
10
CC
DC
DC
EC
EC
ENDCHAR
STARTCHAR 040E
ENCODING 1038
SWIDTH 1008 0
DWIDTH 7 0
BBX 6 8 0 0
BITMAP
78
00
CC
CC
CC
7C
0C
78
ENDCHAR
STARTCHAR 040F
ENCODING 1039
SWIDTH 1008 0
DWIDTH 7 0
BBX 6 8 0 0
BITMAP
CC
CC
CC
CC
CC
CC
FC
10
ENDCHAR
STARTCHAR 0410
ENCODING 1040
SWIDTH 1008 0
DWIDTH 7 0
BBX 6 7 0 1
BITMAP
30
78
CC
CC
FC
CC
CC
ENDCHAR
STARTCHAR 0411
ENCODING 1041
SWIDTH 1008 0
DWIDTH 7 0
BBX 6 7 0 1
BITMAP
F8
C0
C0
F8
CC
CC
F8
ENDCHAR
STARTCHAR 0412
ENCODING 1042
SWIDTH 1008 0
DWIDTH 7 0
BBX 6 7 0 1
BITMAP
F8
CC
CC
F8
CC
CC
F8
ENDCHAR
STARTCHAR 0413
ENCODING 1043
SWIDTH 1008 0
DWIDTH 7 0
BBX 5 7 1 1
BITMAP
F8
C8
C0
C0
C0
C0
C0
ENDCHAR
STARTCHAR 0414
ENCODING 1044
SWIDTH 1008 0
DWIDTH 7 0
BBX 7 8 0 0
BITMAP
3C
2C
2C
2C
6C
6C
FE
C6
ENDCHAR
STARTCHAR 0415
ENCODING 1045
SWIDTH 1008 0
DWIDTH 7 0
BBX 6 7 0 1
BITMAP
FC
C0
C0
F8
C0
C0
FC
ENDCHAR
STARTCHAR 0416
ENCODING 1046
SWIDTH 1008 0
DWIDTH 7 0
BBX 6 7 0 1
BITMAP
DC
DC
58
30
58
DC
DC
ENDCHAR
STARTCHAR 0417
ENCODING 1047
SWIDTH 1008 0
DWIDTH 7 0
BBX 6 7 0 1
BITMAP
78
CC
0C
38
0C
CC
78
ENDCHAR
STARTCHAR 0418
ENCODING 1048
SWIDTH 1008 0
DWIDTH 7 0
BBX 6 7 0 1
BITMAP
CC
CC
DC
DC
EC
EC
CC
ENDCHAR
STARTCHAR 0419
ENCODING 1049
SWIDTH 1008 0
DWIDTH 7 0
BBX 6 7 0 1
BITMAP
78
00
CC
DC
DC
EC
EC
ENDCHAR
STARTCHAR 041A
ENCODING 1050
SWIDTH 1008 0
DWIDTH 7 0
BBX 6 7 0 1
BITMAP
CC
D8
D0
F0
D8
D8
CC
ENDCHAR
STARTCHAR 041B
ENCODING 1051
SWIDTH 1008 0
DWIDTH 7 0
BBX 6 7 0 1
BITMAP
3C
2C
2C
2C
6C
EC
CC
ENDCHAR
STARTCHAR 041C
ENCODING 1052
SWIDTH 1008 0
DWIDTH 7 0
BBX 6 7 0 1
BITMAP
CC
FC
FC
DC
DC
CC
CC
ENDCHAR
STARTCHAR 041D
ENCODING 1053
SWIDTH 1008 0
DWIDTH 7 0
BBX 6 7 0 1
BITMAP
CC
CC
CC
FC
CC
CC
CC
ENDCHAR
STARTCHAR 041E
ENCODING 1054
SWIDTH 1008 0
DWIDTH 7 0
BBX 6 7 0 1
BITMAP
78
CC
CC
CC
CC
CC
78
ENDCHAR
STARTCHAR 041F
ENCODING 1055
SWIDTH 1008 0
DWIDTH 7 0
BBX 6 7 0 1
BITMAP
FC
CC
CC
CC
CC
CC
CC
ENDCHAR
STARTCHAR 0420
ENCODING 1056
SWIDTH 1008 0
DWIDTH 7 0
BBX 6 7 0 1
BITMAP
F8
CC
CC
CC
F8
C0
C0
ENDCHAR
STARTCHAR 0421
ENCODING 1057
SWIDTH 1008 0
DWIDTH 7 0
BBX 6 7 0 1
BITMAP
38
6C
C0
C0
C0
6C
38
ENDCHAR
STARTCHAR 0422
ENCODING 1058
SWIDTH 1008 0
DWIDTH 7 0
BBX 5 7 1 1
BITMAP
F8
20
20
20
20
20
20
ENDCHAR
STARTCHAR 0423
ENCODING 1059
SWIDTH 1008 0
DWIDTH 7 0
BBX 6 7 0 1
BITMAP
CC
CC
CC
7C
0C
CC
78
ENDCHAR
STARTCHAR 0424
ENCODING 1060
SWIDTH 1008 0
DWIDTH 7 0
BBX 6 7 0 1
BITMAP
10
78
DC
DC
DC
78
10
ENDCHAR
STARTCHAR 0425
ENCODING 1061
SWIDTH 1008 0
DWIDTH 7 0
BBX 6 7 0 1
BITMAP
CC
CC
78
30
78
CC
CC
ENDCHAR
STARTCHAR 0426
ENCODING 1062
SWIDTH 1008 0
DWIDTH 7 0
BBX 6 8 0 0
BITMAP
D8
D8
D8
D8
D8
D8
FC
0C
ENDCHAR
STARTCHAR 0427
ENCODING 1063
SWIDTH 1008 0
DWIDTH 7 0
BBX 6 7 0 1
BITMAP
CC
CC
CC
7C
0C
0C
0C
ENDCHAR
STARTCHAR 0428
ENCODING 1064
SWIDTH 1008 0
DWIDTH 7 0
BBX 6 7 0 1
BITMAP
DC
DC
DC
DC
DC
DC
FC
ENDCHAR
STARTCHAR 0429
ENCODING 1065
SWIDTH 1008 0
DWIDTH 7 0
BBX 7 8 0 0
BITMAP
DC
DC
DC
DC
DC
DC
FE
06
ENDCHAR
STARTCHAR 042A
ENCODING 1066
SWIDTH 1008 0
DWIDTH 7 0
BBX 6 7 0 1
BITMAP
E0
60
78
6C
6C
6C
78
ENDCHAR
STARTCHAR 042B
ENCODING 1067
SWIDTH 1008 0
DWIDTH 7 0
BBX 6 7 0 1
BITMAP
CC
CC
EC
DC
DC
DC
EC
ENDCHAR
STARTCHAR 042C
ENCODING 1068
SWIDTH 1008 0
DWIDTH 7 0
BBX 6 7 0 1
BITMAP
C0
C0
F8
CC
CC
CC
F8
ENDCHAR
STARTCHAR 042D
ENCODING 1069
SWIDTH 1008 0
DWIDTH 7 0
BBX 6 7 0 1
BITMAP
70
D8
0C
7C
0C
D8
70
ENDCHAR
STARTCHAR 042E
ENCODING 1070
SWIDTH 1008 0
DWIDTH 7 0
BBX 6 7 0 1
BITMAP
98
AC
AC
EC
AC
AC
98
ENDCHAR
STARTCHAR 042F
ENCODING 1071
SWIDTH 1008 0
DWIDTH 7 0
BBX 6 7 0 1
BITMAP
7C
CC
CC
EC
3C
6C
EC
ENDCHAR
STARTCHAR 0430
ENCODING 1072
SWIDTH 1008 0
DWIDTH 7 0
BBX 6 5 0 1
BITMAP
78
0C
7C
CC
7C
ENDCHAR
STARTCHAR 0431
ENCODING 1073
SWIDTH 1008 0
DWIDTH 7 0
BBX 6 7 0 1
BITMAP
7C
C0
D8
EC
CC
CC
78
ENDCHAR
STARTCHAR 0432
ENCODING 1074
SWIDTH 1008 0
DWIDTH 7 0
BBX 6 5 0 1
BITMAP
F8
CC
F8
CC
F8
ENDCHAR
STARTCHAR 0433
ENCODING 1075
SWIDTH 1008 0
DWIDTH 7 0
BBX 5 5 1 1
BITMAP
F8
C8
C0
C0
C0
ENDCHAR
STARTCHAR 0434
ENCODING 1076
SWIDTH 1008 0
DWIDTH 7 0
BBX 7 6 0 0
BITMAP
3C
2C
2C
6C
FE
C6
ENDCHAR
STARTCHAR 0435
ENCODING 1077
SWIDTH 1008 0
DWIDTH 7 0
BBX 6 5 0 1
BITMAP
78
CC
FC
C0
78
ENDCHAR
STARTCHAR 0436
ENCODING 1078
SWIDTH 1008 0
DWIDTH 7 0
BBX 6 5 0 1
BITMAP
DC
DC
78
DC
DC
ENDCHAR
STARTCHAR 0437
ENCODING 1079
SWIDTH 1008 0
DWIDTH 7 0
BBX 6 5 0 1
BITMAP
78
CC
18
CC
78
ENDCHAR
STARTCHAR 0438
ENCODING 1080
SWIDTH 1008 0
DWIDTH 7 0
BBX 6 5 0 1
BITMAP
CC
DC
DC
EC
CC
ENDCHAR
STARTCHAR 0439
ENCODING 1081
SWIDTH 1008 0
DWIDTH 7 0
BBX 6 7 0 1
BITMAP
78
00
CC
DC
DC
EC
CC
ENDCHAR
STARTCHAR 043A
ENCODING 1082
SWIDTH 1008 0
DWIDTH 7 0
BBX 6 5 0 1
BITMAP
CC
D0
F8
CC
CC
ENDCHAR
STARTCHAR 043B
ENCODING 1083
SWIDTH 1008 0
DWIDTH 7 0
BBX 6 5 0 1
BITMAP
3C
2C
6C
EC
CC
ENDCHAR
STARTCHAR 043C
ENCODING 1084
SWIDTH 1008 0
DWIDTH 7 0
BBX 6 5 0 1
BITMAP
CC
FC
DC
DC
CC
ENDCHAR
STARTCHAR 043D
ENCODING 1085
SWIDTH 1008 0
DWIDTH 7 0
BBX 6 5 0 1
BITMAP
CC
CC
FC
CC
CC
ENDCHAR
STARTCHAR 043E
ENCODING 1086
SWIDTH 1008 0
DWIDTH 7 0
BBX 6 5 0 1
BITMAP
78
CC
CC
CC
78
ENDCHAR
STARTCHAR 043F
ENCODING 1087
SWIDTH 1008 0
DWIDTH 7 0
BBX 6 5 0 1
BITMAP
FC
CC
CC
CC
CC
ENDCHAR
STARTCHAR 0440
ENCODING 1088
SWIDTH 1008 0
DWIDTH 7 0
BBX 6 6 0 0
BITMAP
D8
EC
CC
CC
F8
C0
ENDCHAR
STARTCHAR 0441
ENCODING 1089
SWIDTH 1008 0
DWIDTH 7 0
BBX 6 5 0 1
BITMAP
78
CC
C0
CC
78
ENDCHAR
STARTCHAR 0442
ENCODING 1090
SWIDTH 1008 0
DWIDTH 7 0
BBX 5 5 1 1
BITMAP
F8
20
20
20
20
ENDCHAR
STARTCHAR 0443
ENCODING 1091
SWIDTH 1008 0
DWIDTH 7 0
BBX 6 6 0 0
BITMAP
CC
CC
CC
7C
0C
78
ENDCHAR
STARTCHAR 0444
ENCODING 1092
SWIDTH 1008 0
DWIDTH 7 0
BBX 6 7 0 0
BITMAP
10
78
DC
DC
DC
78
10
ENDCHAR
STARTCHAR 0445
ENCODING 1093
SWIDTH 1008 0
DWIDTH 7 0
BBX 6 5 0 1
BITMAP
CC
78
30
78
CC
ENDCHAR
STARTCHAR 0446
ENCODING 1094
SWIDTH 1008 0
DWIDTH 7 0
BBX 6 6 0 0
BITMAP
D8
D8
D8
D8
FC
0C
ENDCHAR
STARTCHAR 0447
ENCODING 1095
SWIDTH 1008 0
DWIDTH 7 0
BBX 6 5 0 1
BITMAP
CC
CC
7C
0C
0C
ENDCHAR
STARTCHAR 0448
ENCODING 1096
SWIDTH 1008 0
DWIDTH 7 0
BBX 6 5 0 1
BITMAP
DC
DC
DC
DC
FC
ENDCHAR
STARTCHAR 0449
ENCODING 1097
SWIDTH 1008 0
DWIDTH 7 0
BBX 7 6 0 0
BITMAP
DC
DC
DC
DC
FE
06
ENDCHAR
STARTCHAR 044A
ENCODING 1098
SWIDTH 1008 0
DWIDTH 7 0
BBX 6 5 0 1
BITMAP
E0
60
78
6C
78
ENDCHAR
STARTCHAR 044B
ENCODING 1099
SWIDTH 1008 0
DWIDTH 7 0
BBX 6 5 0 1
BITMAP
CC
CC
EC
DC
EC
ENDCHAR
STARTCHAR 044C
ENCODING 1100
SWIDTH 1008 0
DWIDTH 7 0
BBX 6 5 0 1
BITMAP
C0
C0
F8
CC
F8
ENDCHAR
STARTCHAR 044D
ENCODING 1101
SWIDTH 1008 0
DWIDTH 7 0
BBX 6 5 0 1
BITMAP
78
CC
1C
CC
78
ENDCHAR
STARTCHAR 044E
ENCODING 1102
SWIDTH 1008 0
DWIDTH 7 0
BBX 6 5 0 1
BITMAP
98
AC
EC
AC
98
ENDCHAR
STARTCHAR 044F
ENCODING 1103
SWIDTH 1008 0
DWIDTH 7 0
BBX 6 5 0 1
BITMAP
7C
CC
7C
CC
CC
ENDCHAR
STARTCHAR 0450
ENCODING 1104
SWIDTH 1008 0
DWIDTH 7 0
BBX 6 7 0 1
BITMAP
20
10
78
CC
FC
C0
78
ENDCHAR
STARTCHAR 0451
ENCODING 1105
SWIDTH 1008 0
DWIDTH 7 0
BBX 6 7 0 1
BITMAP
78
00
78
CC
FC
C0
78
ENDCHAR
STARTCHAR 0452
ENCODING 1106
SWIDTH 1008 0
DWIDTH 7 0
BBX 6 8 0 0
BITMAP
60
F0
60
78
6C
6C
6C
18
ENDCHAR
STARTCHAR 0453
ENCODING 1107
SWIDTH 1008 0
DWIDTH 7 0
BBX 5 7 1 1
BITMAP
10
20
F8
C8
C0
C0
C0
ENDCHAR
STARTCHAR 0454
ENCODING 1108
SWIDTH 1008 0
DWIDTH 7 0
BBX 6 5 0 1
BITMAP
78
CC
E0
CC
78
ENDCHAR
STARTCHAR 0455
ENCODING 1109
SWIDTH 1008 0
DWIDTH 7 0
BBX 6 5 0 1
BITMAP
78
C0
78
0C
F8
ENDCHAR
STARTCHAR 0456
ENCODING 1110
SWIDTH 1008 0
DWIDTH 7 0
BBX 5 7 1 1
BITMAP
20
00
60
20
20
20
F8
ENDCHAR
STARTCHAR 0457
ENCODING 1111
SWIDTH 1008 0
DWIDTH 7 0
BBX 5 7 1 1
BITMAP
F0
00
60
20
20
20
F8
ENDCHAR
STARTCHAR 0458
ENCODING 1112
SWIDTH 1008 0
DWIDTH 7 0
BBX 4 8 1 0
BITMAP
30
00
30
30
30
30
30
E0
ENDCHAR
STARTCHAR 0459
ENCODING 1113
SWIDTH 1008 0
DWIDTH 7 0
BBX 6 5 0 1
BITMAP
70
5C
54
D4
DC
ENDCHAR
STARTCHAR 045A
ENCODING 1114
SWIDTH 1008 0
DWIDTH 7 0
BBX 6 5 0 1
BITMAP
D0
DC
F4
D4
DC
ENDCHAR
STARTCHAR 045B
ENCODING 1115
SWIDTH 1008 0
DWIDTH 7 0
BBX 6 7 0 1
BITMAP
60
F0
60
78
6C
6C
6C
ENDCHAR
STARTCHAR 045C
ENCODING 1116
SWIDTH 1008 0
DWIDTH 7 0
BBX 6 7 0 1
BITMAP
10
10
CC
D0
F8
CC
CC
ENDCHAR
STARTCHAR 045D
ENCODING 1117
SWIDTH 1008 0
DWIDTH 7 0
BBX 6 7 0 1
BITMAP
20
10
CC
DC
DC
EC
CC
ENDCHAR
STARTCHAR 045E
ENCODING 1118
SWIDTH 1008 0
DWIDTH 7 0
BBX 6 8 0 0
BITMAP
78
00
CC
CC
CC
7C
0C
78
ENDCHAR
STARTCHAR 045F
ENCODING 1119
SWIDTH 1008 0
DWIDTH 7 0
BBX 6 6 0 0
BITMAP
CC
CC
CC
CC
FC
10
ENDCHAR
STARTCHAR 0462
ENCODING 1122
SWIDTH 1008 0
DWIDTH 7 0
BBX 6 7 0 1
BITMAP
60
F0
60
78
6C
6C
78
ENDCHAR
STARTCHAR 0463
ENCODING 1123
SWIDTH 1008 0
DWIDTH 7 0
BBX 6 7 0 1
BITMAP
60
60
F0
60
78
6C
78
ENDCHAR
STARTCHAR 046A
ENCODING 1130
SWIDTH 1008 0
DWIDTH 7 0
BBX 6 7 0 1
BITMAP
FC
84
48
30
58
DC
DC
ENDCHAR
STARTCHAR 046B
ENCODING 1131
SWIDTH 1008 0
DWIDTH 7 0
BBX 6 5 0 1
BITMAP
FC
48
30
DC
DC
ENDCHAR
STARTCHAR 0472
ENCODING 1138
SWIDTH 1008 0
DWIDTH 7 0
BBX 6 7 0 1
BITMAP
78
CC
CC
B4
CC
CC
78
ENDCHAR
STARTCHAR 0473
ENCODING 1139
SWIDTH 1008 0
DWIDTH 7 0
BBX 6 5 0 1
BITMAP
78
CC
B4
CC
78
ENDCHAR
STARTCHAR 0474
ENCODING 1140
SWIDTH 1008 0
DWIDTH 7 0
BBX 6 7 0 1
BITMAP
CC
CC
C8
C8
78
30
10
ENDCHAR
STARTCHAR 0475
ENCODING 1141
SWIDTH 1008 0
DWIDTH 7 0
BBX 5 5 1 1
BITMAP
D8
D0
D0
70
20
ENDCHAR
STARTCHAR 0490
ENCODING 1168
SWIDTH 1008 0
DWIDTH 7 0
BBX 5 7 1 1
BITMAP
18
F8
C0
C0
C0
C0
C0
ENDCHAR
STARTCHAR 0491
ENCODING 1169
SWIDTH 1008 0
DWIDTH 7 0
BBX 5 6 1 1
BITMAP
18
F8
C0
C0
C0
C0
ENDCHAR
STARTCHAR 0492
ENCODING 1170
SWIDTH 1008 0
DWIDTH 7 0
BBX 6 7 0 1
BITMAP
7C
64
60
F0
60
60
60
ENDCHAR
STARTCHAR 0493
ENCODING 1171
SWIDTH 1008 0
DWIDTH 7 0
BBX 6 5 0 1
BITMAP
7C
64
F0
60
60
ENDCHAR
STARTCHAR 0494
ENCODING 1172
SWIDTH 1008 0
DWIDTH 7 0
BBX 5 8 1 0
BITMAP
F8
C8
C0
F0
D8
D8
D8
30
ENDCHAR
STARTCHAR 0495
ENCODING 1173
SWIDTH 1008 0
DWIDTH 7 0
BBX 5 6 1 0
BITMAP
F8
C0
F0
D8
D8
30
ENDCHAR
STARTCHAR 0496
ENCODING 1174
SWIDTH 1008 0
DWIDTH 7 0
BBX 7 8 0 0
BITMAP
DC
DC
58
30
58
DC
DE
06
ENDCHAR
STARTCHAR 0497
ENCODING 1175
SWIDTH 1008 0
DWIDTH 7 0
BBX 7 6 0 0
BITMAP
DC
DC
78
DC
DE
06
ENDCHAR
STARTCHAR 0498
ENCODING 1176
SWIDTH 1008 0
DWIDTH 7 0
BBX 6 8 0 0
BITMAP
78
CC
0C
38
0C
CC
78
10
ENDCHAR
STARTCHAR 0499
ENCODING 1177
SWIDTH 1008 0
DWIDTH 7 0
BBX 6 6 0 0
BITMAP
78
CC
18
CC
78
10
ENDCHAR
STARTCHAR 049A
ENCODING 1178
SWIDTH 1008 0
DWIDTH 7 0
BBX 6 8 0 0
BITMAP
CC
D8
D0
F0
D8
D8
CC
0C
ENDCHAR
STARTCHAR 049B
ENCODING 1179
SWIDTH 1008 0
DWIDTH 7 0
BBX 7 6 0 0
BITMAP
CC
D0
F8
CC
CE
06
ENDCHAR
STARTCHAR 049C
ENCODING 1180
SWIDTH 1008 0
DWIDTH 7 0
BBX 6 7 0 1
BITMAP
CC
C8
D8
F0
D8
CC
CC
ENDCHAR
STARTCHAR 049D
ENCODING 1181
SWIDTH 1008 0
DWIDTH 7 0
BBX 6 5 0 1
BITMAP
CC
D8
F0
DC
CC
ENDCHAR
STARTCHAR 04A0
ENCODING 1184
SWIDTH 1008 0
DWIDTH 7 0
BBX 6 7 0 1
BITMAP
EC
68
70
70
78
78
6C
ENDCHAR
STARTCHAR 04A1
ENCODING 1185
SWIDTH 1008 0
DWIDTH 7 0
BBX 6 5 0 1
BITMAP
EC
70
78
6C
6C
ENDCHAR
STARTCHAR 04A2
ENCODING 1186
SWIDTH 1008 0
DWIDTH 7 0
BBX 7 8 0 0
BITMAP
CC
CC
CC
FC
CC
CC
CE
06
ENDCHAR
STARTCHAR 04A3
ENCODING 1187
SWIDTH 1008 0
DWIDTH 7 0
BBX 7 6 0 0
BITMAP
CC
CC
FC
CC
CE
06
ENDCHAR
STARTCHAR 04A4
ENCODING 1188
SWIDTH 1008 0
DWIDTH 7 0
BBX 6 7 0 1
BITMAP
DC
D4
D0
F0
D0
D0
D0
ENDCHAR
STARTCHAR 04A5
ENCODING 1189
SWIDTH 1008 0
DWIDTH 7 0
BBX 6 5 0 1
BITMAP
DC
D4
F0
D0
D0
ENDCHAR
STARTCHAR 04AA
ENCODING 1194
SWIDTH 1008 0
DWIDTH 7 0
BBX 6 8 0 0
BITMAP
38
6C
C0
C0
C0
6C
38
10
ENDCHAR
STARTCHAR 04AB
ENCODING 1195
SWIDTH 1008 0
DWIDTH 7 0
BBX 6 6 0 0
BITMAP
78
CC
C0
CC
78
10
ENDCHAR
STARTCHAR 04AC
ENCODING 1196
SWIDTH 1008 0
DWIDTH 7 0
BBX 5 8 1 0
BITMAP
F8
20
20
20
20
20
30
30
ENDCHAR
STARTCHAR 04AD
ENCODING 1197
SWIDTH 1008 0
DWIDTH 7 0
BBX 5 6 1 0
BITMAP
F8
20
20
20
30
30
ENDCHAR
STARTCHAR 04AE
ENCODING 1198
SWIDTH 1008 0
DWIDTH 7 0
BBX 5 7 1 1
BITMAP
D8
D8
D8
70
20
20
20
ENDCHAR
STARTCHAR 04AF
ENCODING 1199
SWIDTH 1008 0
DWIDTH 7 0
BBX 5 6 1 0
BITMAP
D8
D8
D8
70
20
20
ENDCHAR
STARTCHAR 04B0
ENCODING 1200
SWIDTH 1008 0
DWIDTH 7 0
BBX 5 7 1 1
BITMAP
D8
D8
D8
70
20
70
20
ENDCHAR
STARTCHAR 04B1
ENCODING 1201
SWIDTH 1008 0
DWIDTH 7 0
BBX 5 6 1 0
BITMAP
D8
D8
70
20
70
20
ENDCHAR
STARTCHAR 04B6
ENCODING 1206
SWIDTH 1008 0
DWIDTH 7 0
BBX 7 8 0 0
BITMAP
CC
CC
CC
7C
0C
0C
0E
06
ENDCHAR
STARTCHAR 04B7
ENCODING 1207
SWIDTH 1008 0
DWIDTH 7 0
BBX 7 6 0 0
BITMAP
CC
CC
7C
0C
0E
06
ENDCHAR
STARTCHAR 04B8
ENCODING 1208
SWIDTH 1008 0
DWIDTH 7 0
BBX 6 7 0 1
BITMAP
CC
CC
DC
7C
1C
0C
0C
ENDCHAR
STARTCHAR 04B9
ENCODING 1209
SWIDTH 1008 0
DWIDTH 7 0
BBX 6 5 0 1
BITMAP
CC
DC
7C
1C
0C
ENDCHAR
STARTCHAR 04BA
ENCODING 1210
SWIDTH 1008 0
DWIDTH 7 0
BBX 6 7 1 1
BITMAP
C0
C0
C0
F8
CC
CC
CC
ENDCHAR
STARTCHAR 04BB
ENCODING 1211
SWIDTH 1008 0
DWIDTH 7 0
BBX 6 7 0 1
BITMAP
C0
C0
D8
EC
CC
CC
CC
ENDCHAR
STARTCHAR 04C0
ENCODING 1216
SWIDTH 1008 0
DWIDTH 7 0
BBX 5 7 1 1
BITMAP
F8
20
20
20
20
20
F8
ENDCHAR
STARTCHAR 04C1
ENCODING 1217
SWIDTH 1008 0
DWIDTH 7 0
BBX 6 7 0 1
BITMAP
78
00
DC
DC
78
DC
DC
ENDCHAR
STARTCHAR 04C2
ENCODING 1218
SWIDTH 1008 0
DWIDTH 7 0
BBX 6 7 0 1
BITMAP
78
00
DC
DC
78
DC
DC
ENDCHAR
STARTCHAR 04CB
ENCODING 1227
SWIDTH 1008 0
DWIDTH 7 0
BBX 7 8 0 0
BITMAP
CC
CC
CC
7C
0C
0C
0E
06
ENDCHAR
STARTCHAR 04CC
ENCODING 1228
SWIDTH 1008 0
DWIDTH 7 0
BBX 7 6 0 0
BITMAP
CC
CC
7C
0C
0E
06
ENDCHAR
STARTCHAR 04CF
ENCODING 1231
SWIDTH 1008 0
DWIDTH 7 0
BBX 5 7 1 1
BITMAP
60
20
20
20
20
20
F8
ENDCHAR
STARTCHAR 04D0
ENCODING 1232
SWIDTH 1008 0
DWIDTH 7 0
BBX 6 7 0 1
BITMAP
78
00
30
78
CC
FC
CC
ENDCHAR
STARTCHAR 04D1
ENCODING 1233
SWIDTH 1008 0
DWIDTH 7 0
BBX 6 7 0 1
BITMAP
78
00
78
0C
7C
CC
7C
ENDCHAR
STARTCHAR 04D2
ENCODING 1234
SWIDTH 1008 0
DWIDTH 7 0
BBX 6 7 0 1
BITMAP
78
00
30
78
CC
FC
CC
ENDCHAR
STARTCHAR 04D3
ENCODING 1235
SWIDTH 1008 0
DWIDTH 7 0
BBX 6 7 0 1
BITMAP
78
00
78
0C
7C
CC
7C
ENDCHAR
STARTCHAR 04D4
ENCODING 1236
SWIDTH 1008 0
DWIDTH 7 0
BBX 6 7 0 1
BITMAP
3C
70
D0
DC
F0
D0
DC
ENDCHAR
STARTCHAR 04D5
ENCODING 1237
SWIDTH 1008 0
DWIDTH 7 0
BBX 6 5 0 1
BITMAP
78
1C
78
D0
78
ENDCHAR
STARTCHAR 04D6
ENCODING 1238
SWIDTH 1008 0
DWIDTH 7 0
BBX 6 7 0 1
BITMAP
78
00
FC
C0
F8
C0
FC
ENDCHAR
STARTCHAR 04D7
ENCODING 1239
SWIDTH 1008 0
DWIDTH 7 0
BBX 6 7 0 1
BITMAP
78
00
78
CC
FC
C0
78
ENDCHAR
STARTCHAR 04D8
ENCODING 1240
SWIDTH 1008 0
DWIDTH 7 0
BBX 6 7 0 1
BITMAP
78
CC
0C
FC
CC
CC
78
ENDCHAR
STARTCHAR 04D9
ENCODING 1241
SWIDTH 1008 0
DWIDTH 7 0
BBX 6 5 0 1
BITMAP
78
0C
FC
CC
78
ENDCHAR
STARTCHAR 04DC
ENCODING 1244
SWIDTH 1008 0
DWIDTH 7 0
BBX 6 7 0 1
BITMAP
78
00
DC
DC
78
DC
DC
ENDCHAR
STARTCHAR 04DD
ENCODING 1245
SWIDTH 1008 0
DWIDTH 7 0
BBX 6 7 0 1
BITMAP
78
00
DC
DC
78
DC
DC
ENDCHAR
STARTCHAR 04DE
ENCODING 1246
SWIDTH 1008 0
DWIDTH 7 0
BBX 6 7 0 1
BITMAP
78
00
78
CC
18
CC
78
ENDCHAR
STARTCHAR 04DF
ENCODING 1247
SWIDTH 1008 0
DWIDTH 7 0
BBX 6 7 0 1
BITMAP
78
00
78
CC
18
CC
78
ENDCHAR
STARTCHAR 04E2
ENCODING 1250
SWIDTH 1008 0
DWIDTH 7 0
BBX 6 7 0 1
BITMAP
78
00
CC
DC
DC
EC
EC
ENDCHAR
STARTCHAR 04E3
ENCODING 1251
SWIDTH 1008 0
DWIDTH 7 0
BBX 6 7 0 1
BITMAP
78
00
CC
DC
DC
EC
CC
ENDCHAR
STARTCHAR 04E4
ENCODING 1252
SWIDTH 1008 0
DWIDTH 7 0
BBX 6 7 0 1
BITMAP
78
00
CC
DC
DC
EC
EC
ENDCHAR
STARTCHAR 04E5
ENCODING 1253
SWIDTH 1008 0
DWIDTH 7 0
BBX 6 7 0 1
BITMAP
78
00
CC
DC
DC
EC
CC
ENDCHAR
STARTCHAR 04E6
ENCODING 1254
SWIDTH 1008 0
DWIDTH 7 0
BBX 6 7 0 1
BITMAP
78
00
78
CC
CC
CC
78
ENDCHAR
STARTCHAR 04E7
ENCODING 1255
SWIDTH 1008 0
DWIDTH 7 0
BBX 6 7 0 1
BITMAP
78
00
78
CC
CC
CC
78
ENDCHAR
STARTCHAR 04E8
ENCODING 1256
SWIDTH 1008 0
DWIDTH 7 0
BBX 6 7 0 1
BITMAP
78
CC
CC
B4
CC
CC
78
ENDCHAR
STARTCHAR 04E9
ENCODING 1257
SWIDTH 1008 0
DWIDTH 7 0
BBX 6 5 0 1
BITMAP
78
CC
B4
CC
78
ENDCHAR
STARTCHAR 04EE
ENCODING 1262
SWIDTH 1008 0
DWIDTH 7 0
BBX 6 7 0 1
BITMAP
78
00
CC
CC
7C
0C
78
ENDCHAR
STARTCHAR 04EF
ENCODING 1263
SWIDTH 1008 0
DWIDTH 7 0
BBX 6 8 0 0
BITMAP
78
00
CC
CC
CC
7C
0C
78
ENDCHAR
STARTCHAR 04F0
ENCODING 1264
SWIDTH 1008 0
DWIDTH 7 0
BBX 6 7 0 1
BITMAP
78
00
CC
CC
7C
0C
78
ENDCHAR
STARTCHAR 04F1
ENCODING 1265
SWIDTH 1008 0
DWIDTH 7 0
BBX 6 8 0 0
BITMAP
78
00
CC
CC
CC
7C
0C
78
ENDCHAR
STARTCHAR 04F2
ENCODING 1266
SWIDTH 1008 0
DWIDTH 7 0
BBX 6 7 0 1
BITMAP
28
50
CC
CC
7C
0C
78
ENDCHAR
STARTCHAR 04F3
ENCODING 1267
SWIDTH 1008 0
DWIDTH 7 0
BBX 6 8 0 0
BITMAP
28
50
CC
CC
CC
7C
0C
78
ENDCHAR
STARTCHAR 04F4
ENCODING 1268
SWIDTH 1008 0
DWIDTH 7 0
BBX 6 7 0 1
BITMAP
78
00
CC
CC
7C
0C
0C
ENDCHAR
STARTCHAR 04F5
ENCODING 1269
SWIDTH 1008 0
DWIDTH 7 0
BBX 6 7 0 1
BITMAP
78
00
CC
CC
7C
0C
0C
ENDCHAR
STARTCHAR 04F6
ENCODING 1270
SWIDTH 1008 0
DWIDTH 7 0
BBX 5 8 1 0
BITMAP
F8
C8
C0
C0
C0
C0
C0
40
ENDCHAR
STARTCHAR 04F7
ENCODING 1271
SWIDTH 1008 0
DWIDTH 7 0
BBX 5 6 1 0
BITMAP
F8
C8
C0
C0
C0
40
ENDCHAR
STARTCHAR 04F8
ENCODING 1272
SWIDTH 1008 0
DWIDTH 7 0
BBX 6 7 0 1
BITMAP
78
00
CC
EC
DC
DC
EC
ENDCHAR
STARTCHAR 04F9
ENCODING 1273
SWIDTH 1008 0
DWIDTH 7 0
BBX 6 7 0 1
BITMAP
78
00
CC
CC
EC
DC
EC
ENDCHAR
STARTCHAR 051A
ENCODING 1306
SWIDTH 1008 0
DWIDTH 7 0
BBX 6 7 0 1
BITMAP
78
CC
CC
CC
DC
D8
74
ENDCHAR
STARTCHAR 051B
ENCODING 1307
SWIDTH 1008 0
DWIDTH 7 0
BBX 6 6 0 0
BITMAP
7C
CC
CC
7C
0C
0C
ENDCHAR
STARTCHAR 051C
ENCODING 1308
SWIDTH 1008 0
DWIDTH 7 0
BBX 6 7 0 1
BITMAP
DC
DC
DC
DC
FC
FC
48
ENDCHAR
STARTCHAR 051D
ENCODING 1309
SWIDTH 1008 0
DWIDTH 7 0
BBX 6 5 0 1
BITMAP
DC
DC
DC
DC
78
ENDCHAR
STARTCHAR 0524
ENCODING 1316
SWIDTH 1008 0
DWIDTH 7 0
BBX 7 8 0 0
BITMAP
FC
CC
CC
CC
CC
CC
CE
06
ENDCHAR
STARTCHAR 0525
ENCODING 1317
SWIDTH 1008 0
DWIDTH 7 0
BBX 7 6 0 0
BITMAP
FC
CC
CC
CC
CE
06
ENDCHAR
STARTCHAR 2013
ENCODING 8211
SWIDTH 1008 0
DWIDTH 7 0
BBX 6 1 0 4
BITMAP
FC
ENDCHAR
STARTCHAR 2014
ENCODING 8212
SWIDTH 1008 0
DWIDTH 7 0
BBX 7 1 0 4
BITMAP
FE
ENDCHAR
STARTCHAR 2015
ENCODING 8213
SWIDTH 1008 0
DWIDTH 7 0
BBX 6 1 0 4
BITMAP
FC
ENDCHAR
STARTCHAR 2018
ENCODING 8216
SWIDTH 1008 0
DWIDTH 7 0
BBX 2 3 2 5
BITMAP
40
80
80
ENDCHAR
STARTCHAR 2019
ENCODING 8217
SWIDTH 1008 0
DWIDTH 7 0
BBX 2 3 2 5
BITMAP
40
40
80
ENDCHAR
STARTCHAR 201A
ENCODING 8218
SWIDTH 1008 0
DWIDTH 7 0
BBX 2 3 2 1
BITMAP
40
40
80
ENDCHAR
STARTCHAR 201C
ENCODING 8220
SWIDTH 1008 0
DWIDTH 7 0
BBX 5 3 1 5
BITMAP
58
F0
F0
ENDCHAR
STARTCHAR 201D
ENCODING 8221
SWIDTH 1008 0
DWIDTH 7 0
BBX 5 3 1 5
BITMAP
58
58
F0
ENDCHAR
STARTCHAR 201E
ENCODING 8222
SWIDTH 1008 0
DWIDTH 7 0
BBX 5 3 0 1
BITMAP
78
78
D0
ENDCHAR
STARTCHAR 2020
ENCODING 8224
SWIDTH 1008 0
DWIDTH 7 0
BBX 5 7 1 1
BITMAP
20
20
F8
20
20
20
20
ENDCHAR
STARTCHAR 2021
ENCODING 8225
SWIDTH 1008 0
DWIDTH 7 0
BBX 5 7 1 1
BITMAP
20
20
F8
20
F8
20
20
ENDCHAR
STARTCHAR 2022
ENCODING 8226
SWIDTH 1008 0
DWIDTH 7 0
BBX 3 4 2 2
BITMAP
40
E0
E0
40
ENDCHAR
STARTCHAR 2026
ENCODING 8230
SWIDTH 1008 0
DWIDTH 7 0
BBX 6 2 0 1
BITMAP
94
94
ENDCHAR
STARTCHAR 2030
ENCODING 8240
SWIDTH 1008 0
DWIDTH 7 0
BBX 7 7 0 1
BITMAP
64
A8
D0
10
3E
5A
9C
ENDCHAR
STARTCHAR 2039
ENCODING 8249
SWIDTH 1008 0
DWIDTH 7 0
BBX 3 5 2 2
BITMAP
60
40
80
40
60
ENDCHAR
STARTCHAR 203A
ENCODING 8250
SWIDTH 1008 0
DWIDTH 7 0
BBX 3 5 1 2
BITMAP
C0
40
20
40
C0
ENDCHAR
STARTCHAR 2044
ENCODING 8260
SWIDTH 1008 0
DWIDTH 7 0
BBX 6 7 0 1
BITMAP
04
08
10
10
20
40
80
ENDCHAR
STARTCHAR 2074
ENCODING 8308
SWIDTH 1008 0
DWIDTH 7 0
BBX 2 4 2 4
BITMAP
40
40
C0
40
ENDCHAR
STARTCHAR 20AC
ENCODING 8364
SWIDTH 1008 0
DWIDTH 7 0
BBX 6 7 0 1
BITMAP
18
2C
F0
60
F0
2C
18
ENDCHAR
STARTCHAR 20AE
ENCODING 8366
SWIDTH 1008 0
DWIDTH 7 0
BBX 5 7 1 1
BITMAP
F8
20
30
60
30
60
20
ENDCHAR
STARTCHAR 20AF
ENCODING 8367
SWIDTH 1008 0
DWIDTH 7 0
BBX 6 8 0 0
BITMAP
60
90
98
94
94
94
F8
10
ENDCHAR
STARTCHAR 20B4
ENCODING 8372
SWIDTH 1008 0
DWIDTH 7 0
BBX 6 7 0 1
BITMAP
70
18
FC
00
FC
60
38
ENDCHAR
STARTCHAR 20B8
ENCODING 8376
SWIDTH 1008 0
DWIDTH 7 0
BBX 5 7 1 1
BITMAP
F8
00
F8
20
20
20
20
ENDCHAR
STARTCHAR 20BD
ENCODING 8381
SWIDTH 1008 0
DWIDTH 7 0
BBX 7 7 0 1
BITMAP
7C
66
66
FC
60
F0
60
ENDCHAR
STARTCHAR 2116
ENCODING 8470
SWIDTH 1008 0
DWIDTH 7 0
BBX 6 7 0 1
BITMAP
C8
B4
B4
B4
A8
A0
BC
ENDCHAR
STARTCHAR 2122
ENCODING 8482
SWIDTH 1008 0
DWIDTH 7 0
BBX 5 4 1 3
BITMAP
F8
78
68
68
ENDCHAR
STARTCHAR 2190
ENCODING 8592
SWIDTH 1008 0
DWIDTH 7 0
BBX 7 6 0 1
BITMAP
10
20
7E
FE
20
10
ENDCHAR
STARTCHAR 2191
ENCODING 8593
SWIDTH 1008 0
DWIDTH 7 0
BBX 6 7 0 0
BITMAP
10
30
78
FC
30
30
30
ENDCHAR
STARTCHAR 2192
ENCODING 8594
SWIDTH 1008 0
DWIDTH 7 0
BBX 7 6 0 1
BITMAP
10
18
FC
FE
18
10
ENDCHAR
STARTCHAR 2193
ENCODING 8595
SWIDTH 1008 0
DWIDTH 7 0
BBX 6 7 0 0
BITMAP
30
30
30
B4
78
30
10
ENDCHAR
STARTCHAR 2202
ENCODING 8706
SWIDTH 1008 0
DWIDTH 7 0
BBX 6 6 0 1
BITMAP
70
D8
0C
7C
CC
78
ENDCHAR
STARTCHAR 2206
ENCODING 8710
SWIDTH 1008 0
DWIDTH 7 0
BBX 6 6 0 1
BITMAP
30
78
CC
CC
CC
FC
ENDCHAR
STARTCHAR 220F
ENCODING 8719
SWIDTH 1008 0
DWIDTH 7 0
BBX 6 6 0 1
BITMAP
FC
CC
CC
CC
CC
CC
ENDCHAR
STARTCHAR 2211
ENCODING 8721
SWIDTH 1008 0
DWIDTH 7 0
BBX 6 6 0 1
BITMAP
FC
6C
20
18
6C
FC
ENDCHAR
STARTCHAR 2215
ENCODING 8725
SWIDTH 1008 0
DWIDTH 7 0
BBX 6 7 0 1
BITMAP
04
08
10
10
20
40
80
ENDCHAR
STARTCHAR 221A
ENCODING 8730
SWIDTH 1008 0
DWIDTH 7 0
BBX 6 6 0 1
BITMAP
1C
10
10
90
70
30
ENDCHAR
STARTCHAR 221E
ENCODING 8734
SWIDTH 1008 0
DWIDTH 7 0
BBX 6 3 0 2
BITMAP
78
94
78
ENDCHAR
STARTCHAR 222B
ENCODING 8747
SWIDTH 1008 0
DWIDTH 7 0
BBX 5 7 1 0
BITMAP
30
28
20
20
20
A0
40
ENDCHAR
STARTCHAR 2248
ENCODING 8776
SWIDTH 1008 0
DWIDTH 7 0
BBX 5 4 0 2
BITMAP
68
90
68
90
ENDCHAR
STARTCHAR 2260
ENCODING 8800
SWIDTH 1008 0
DWIDTH 7 0
BBX 6 6 0 1
BITMAP
04
08
FC
BC
40
80
ENDCHAR
STARTCHAR 2264
ENCODING 8804
SWIDTH 1008 0
DWIDTH 7 0
BBX 3 6 2 1
BITMAP
60
40
80
60
00
E0
ENDCHAR
STARTCHAR 2265
ENCODING 8805
SWIDTH 1008 0
DWIDTH 7 0
BBX 3 6 2 1
BITMAP
80
40
60
C0
00
E0
ENDCHAR
STARTCHAR 25B2
ENCODING 9650
SWIDTH 1008 0
DWIDTH 7 0
BBX 6 6 0 1
BITMAP
10
10
30
30
78
FC
ENDCHAR
STARTCHAR 25B6
ENCODING 9654
SWIDTH 1008 0
DWIDTH 7 0
BBX 6 6 0 1
BITMAP
80
E0
F0
FC
E0
80
ENDCHAR
STARTCHAR 25BC
ENCODING 9660
SWIDTH 1008 0
DWIDTH 7 0
BBX 6 6 0 1
BITMAP
FC
78
78
30
10
10
ENDCHAR
STARTCHAR 25C0
ENCODING 9664
SWIDTH 1008 0
DWIDTH 7 0
BBX 6 6 0 1
BITMAP
04
1C
3C
FC
1C
04
ENDCHAR
STARTCHAR 25CA
ENCODING 9674
SWIDTH 1008 0
DWIDTH 7 0
BBX 6 6 0 1
BITMAP
10
30
48
CC
30
10
ENDCHAR
STARTCHAR 2605
ENCODING 9733
SWIDTH 1008 0
DWIDTH 7 0
BBX 6 6 0 1
BITMAP
10
10
FC
78
78
48
ENDCHAR
STARTCHAR 2606
ENCODING 9734
SWIDTH 1008 0
DWIDTH 7 0
BBX 6 6 0 1
BITMAP
10
10
FC
48
78
48
ENDCHAR
STARTCHAR 2660
ENCODING 9824
SWIDTH 1008 0
DWIDTH 7 0
BBX 6 6 0 1
BITMAP
10
30
78
FC
30
78
ENDCHAR
STARTCHAR 2663
ENCODING 9827
SWIDTH 1008 0
DWIDTH 7 0
BBX 5 6 1 1
BITMAP
20
20
D8
D8
20
70
ENDCHAR
STARTCHAR 2665
ENCODING 9829
SWIDTH 1008 0
DWIDTH 7 0
BBX 6 6 0 1
BITMAP
78
FC
FC
FC
30
10
ENDCHAR
STARTCHAR 2666
ENCODING 9830
SWIDTH 1008 0
DWIDTH 7 0
BBX 6 6 0 1
BITMAP
10
30
78
FC
30
10
ENDCHAR
STARTCHAR 266A
ENCODING 9834
SWIDTH 1008 0
DWIDTH 7 0
BBX 6 6 0 1
BITMAP
10
10
18
1C
E0
60
ENDCHAR
STARTCHAR F100
ENCODING 61696
SWIDTH 1008 0
DWIDTH 7 0
BBX 5 6 1 1
BITMAP
F8
88
E8
C8
F8
F8
ENDCHAR
STARTCHAR F101
ENCODING 61697
SWIDTH 1008 0
DWIDTH 7 0
BBX 4 2 1 1
BITMAP
30
F0
ENDCHAR
STARTCHAR F8FF
ENCODING 63743
SWIDTH 1008 0
DWIDTH 7 0
BBX 7 6 0 1
BITMAP
10
6C
FA
FA
7C
38
ENDCHAR
STARTCHAR FB01
ENCODING 64257
SWIDTH 1008 0
DWIDTH 7 0
BBX 6 7 0 1
BITMAP
30
60
FC
6C
6C
6C
6C
ENDCHAR
STARTCHAR FB02
ENCODING 64258
SWIDTH 1008 0
DWIDTH 7 0
BBX 6 7 0 1
BITMAP
3C
6C
FC
6C
6C
6C
6C
ENDCHAR
ENDFONT
